<svg width="85" height="65" viewBox="0 0 85 65" fill="none" xmlns="http://www.w3.org/2000/svg">
<path d="M49.5833 9.479H35.4166C22.0601 9.479 15.3819 9.479 11.2326 12.652C7.08325 15.825 7.08325 20.9319 7.08325 31.1457V33.854C7.08325 44.0677 7.08325 49.1748 11.2326 52.3476C15.3819 55.5207 22.0601 55.5207 35.4166 55.5207H49.5833C62.9396 55.5207 69.6181 55.5207 73.7672 52.3476C77.9166 49.1748 77.9166 44.0677 77.9166 33.854V31.1457C77.9166 20.9319 77.9166 15.825 73.7672 12.652C69.6181 9.479 62.9396 9.479 49.5833 9.479Z" stroke="#00A0E3" stroke-linejoin="round"/>
<path d="M17.7083 43.3332C21.3763 36.3427 35.0488 35.8828 38.9583 43.3332" stroke="#00A0E3" stroke-linecap="round"/>
<path d="M34.5313 26.4061C34.5313 29.0237 31.7564 31.1457 28.3334 31.1457C24.9104 31.1457 22.1355 29.0237 22.1355 26.4061C22.1355 23.7885 24.9104 21.6665 28.3334 21.6665C31.7564 21.6665 34.5313 23.7885 34.5313 26.4061Z" stroke="#00A0E3"/>
<path d="M49.5833 23.021H67.2916M49.5833 32.5002H67.2916M49.5833 41.9793H58.4374" stroke="#00A0E3" stroke-linecap="round" stroke-linejoin="round"/>
</svg>
