<svg width="25" height="25" viewBox="0 0 25 25" fill="none" xmlns="http://www.w3.org/2000/svg">
<path d="M3.646 9.37516V14.5835C3.646 18.5118 3.646 20.4761 4.86638 21.6964C6.08678 22.9168 8.05095 22.9168 11.9793 22.9168H13.021C16.9493 22.9168 18.9136 22.9168 20.1339 21.6964C21.3543 20.4761 21.3543 18.5118 21.3543 14.5835V10.4168C21.3543 6.48845 21.3543 4.52428 20.1339 3.30388C18.9136 2.0835 16.9493 2.0835 13.021 2.0835H12.5002" stroke="white" stroke-width="1.5" stroke-linecap="round" stroke-linejoin="round"/>
<path d="M14.0625 17.7085H18.2292" stroke="white" stroke-width="1.5" stroke-linecap="round" stroke-linejoin="round"/>
<path d="M14.0625 7.2915H18.2292" stroke="white" stroke-width="1.5" stroke-linecap="round" stroke-linejoin="round"/>
<path d="M14.0625 12.5H18.2292" stroke="white" stroke-width="1.5" stroke-linecap="round" stroke-linejoin="round"/>
<path d="M6.771 17.1877C6.771 17.1877 7.77889 17.466 8.3335 18.7502C8.3335 18.7502 9.37516 15.6252 11.4585 14.5835" stroke="white" stroke-width="1.5" stroke-linecap="round" stroke-linejoin="round"/>
<path d="M10.4168 5.2085H3.646M10.4168 5.2085C10.4168 4.33321 7.9932 2.69791 7.37863 2.0835M10.4168 5.2085C10.4168 6.08378 7.99319 7.71908 7.37863 8.3335" stroke="white" stroke-width="1.5" stroke-linecap="round" stroke-linejoin="round"/>
</svg>
