<svg width="25" height="25" viewBox="0 0 25 25" fill="none" xmlns="http://www.w3.org/2000/svg">
<path d="M5.73535 17.6997L8.36618 10.4467C8.84459 9.43989 9.57617 8.60722 10.4144 10.6042C11.1882 12.4477 12.3427 15.8233 13.0241 17.7036M6.9307 14.5855H11.7933" stroke="white" stroke-width="1.5" stroke-linecap="round" stroke-linejoin="round"/>
<path d="M3.60899 5.53944C2.0835 6.91238 2.0835 9.12209 2.0835 13.5415C2.0835 17.9609 2.0835 20.1707 3.60899 21.5436C5.13446 22.9165 7.58971 22.9165 12.5002 22.9165C17.4106 22.9165 19.8659 22.9165 21.3913 21.5436C22.9168 20.1707 22.9168 17.9609 22.9168 13.5415C22.9168 9.12209 22.9168 6.91238 21.3913 5.53944C19.8659 4.1665 17.4106 4.1665 12.5002 4.1665C7.58971 4.1665 5.13446 4.1665 3.60899 5.53944Z" stroke="white" stroke-width="1.5" stroke-linecap="round" stroke-linejoin="round"/>
<path d="M19.2546 10.4028V13.5223M19.2546 13.5223V17.6303M19.2546 13.5223H17.1522C16.9025 13.5223 16.6548 13.5687 16.4214 13.6593C14.6571 14.3439 14.6571 16.8878 16.4214 17.5724C16.6548 17.6629 16.9025 17.7094 17.1522 17.7094H19.2546" stroke="white" stroke-width="1.5" stroke-linecap="round" stroke-linejoin="round"/>
</svg>
