<svg width="25" height="25" viewBox="0 0 25 25" fill="none" xmlns="http://www.w3.org/2000/svg">
<path d="M12.5 2.0835C10.3407 2.0835 7.16924 2.67433 6.55208 5.09585C6.00594 7.23874 6.13295 8.77079 7.49333 10.5905L15.5078 21.3109C16.3141 22.3893 16.7173 22.9286 17.2632 22.9166C17.8093 22.9046 18.1874 22.3483 18.9438 21.2355L19.4945 20.4252C20.4399 19.034 20.9127 18.3384 20.8224 17.5866C20.7322 16.8348 20.1077 16.266 18.8586 15.1283L7.08241 4.16683" stroke="white" stroke-width="1.5"/>
<path d="M12.4998 2.0835C14.6591 2.0835 17.8306 2.67433 18.4478 5.09585C18.9939 7.23874 18.8669 8.77079 17.5065 10.5905L16.0788 12.5002M17.9174 4.16683L12.4998 9.20959M12.4998 17.2876L9.492 21.3109C8.68572 22.3893 8.28258 22.9286 7.73657 22.9166C7.19056 22.9046 6.81241 22.3483 6.05611 21.2355L5.50539 20.4252C4.55992 19.034 4.08716 18.3384 4.1774 17.5866C4.26764 16.8348 4.89216 16.266 6.1412 15.1283L8.96467 12.5002" stroke="white" stroke-width="1.5"/>
</svg>
