<svg width="300" height="220" viewBox="0 0 300 220" fill="none" xmlns="http://www.w3.org/2000/svg">
<path d="M50.2911 216.953C50.2911 216.953 22.5607 204.216 17.7918 197.572C13.023 190.929 20.0333 190.553 20.0333 190.553C20.0333 190.553 7.65835 179.341 9.39961 174.621C11.1407 169.901 17.6374 174.411 17.6374 174.411C17.6374 174.411 9.59389 157.729 13.3459 156.07C20.3341 152.981 30.1373 170.734 30.1373 170.734C30.1373 170.734 28.0305 163.022 32.8427 163.272C40.0998 163.65 39.7999 181.097 39.7999 181.097C39.7999 181.097 40.6195 174.407 44.9935 176.58C52.8416 180.479 50.2911 216.953 50.2911 216.953Z" fill="#65CEFE"/>
<path d="M46.5725 173.882C43.1569 172.116 39.755 177.277 39.755 177.277C39.755 177.277 40.0995 163.65 32.8425 163.272C28.0303 163.022 30.1371 170.734 30.1371 170.734C30.1371 170.734 20.3339 152.981 13.3457 156.07L50.323 216.67C50.5843 212.438 53.3389 177.379 46.5725 173.882Z" fill="#C9EDF9"/>
<path d="M49.5744 217.111C49.5744 217.111 26.8947 219.735 21.0225 217.396C15.1502 215.058 19.3587 212.17 19.3587 212.17C19.3587 212.17 6.74962 209.861 5.77663 206.258C4.80381 202.655 10.8233 203.009 10.8233 203.009C10.8233 203.009 -1.47008 195.648 0.146527 193.193C3.1576 188.621 17.0163 195.983 17.0163 195.983C17.0163 195.983 12.3381 191.97 15.4489 190.305C20.1403 187.794 27.5631 198.789 27.5631 198.789C27.5631 198.789 27.1021 196.079 30.778 195.779C37.3738 195.239 49.5744 217.111 49.5744 217.111Z" fill="#65CEFE"/>
<path d="M30.3911 192.108C26.715 192.408 26.7726 195.735 26.7726 195.735C26.7726 195.735 20.0063 185.756 15.3149 188.267C12.2038 189.932 15.8843 195.401 15.8843 195.401C15.8843 195.401 3.15756 188.621 0.146484 193.193L49.6431 216.994C47.9604 214.256 36.5519 191.605 30.3911 192.108Z" fill="#C9EDF9"/>
<path d="M249.709 218.294C249.709 218.294 277.439 205.556 282.208 198.913C286.977 192.269 279.967 191.893 279.967 191.893C279.967 191.893 292.342 180.681 290.601 175.961C288.86 171.241 282.363 175.751 282.363 175.751C282.363 175.751 290.406 159.069 286.654 157.41C279.666 154.321 269.863 172.075 269.863 172.075C269.863 172.075 271.97 164.362 267.157 164.613C259.9 164.991 260.2 182.437 260.2 182.437C260.2 182.437 259.38 175.748 255.006 177.92C247.158 181.819 249.709 218.294 249.709 218.294Z" fill="#65CEFE"/>
<path d="M253.427 175.222C256.843 173.456 260.245 178.617 260.245 178.617C260.245 178.617 259.9 164.991 267.157 164.613C271.97 164.362 269.863 172.075 269.863 172.075C269.863 172.075 279.666 154.321 286.654 157.41L249.677 218.01C249.416 213.778 246.661 178.72 253.427 175.222Z" fill="#C9EDF9"/>
<path d="M250.426 218.452C250.426 218.452 273.105 221.076 278.978 218.737C284.85 216.399 280.641 213.51 280.641 213.51C280.641 213.51 293.251 211.202 294.224 207.598C295.196 203.995 289.177 204.349 289.177 204.349C289.177 204.349 301.47 196.989 299.854 194.534C296.843 189.962 282.984 197.324 282.984 197.324C282.984 197.324 287.662 193.311 284.551 191.646C279.86 189.135 272.437 200.13 272.437 200.13C272.437 200.13 272.898 197.42 269.222 197.119C262.626 196.58 250.426 218.452 250.426 218.452Z" fill="#65CEFE"/>
<path d="M269.073 195.15C272.749 195.45 272.437 200.13 272.437 200.13C272.437 200.13 279.994 187.096 284.686 189.607C287.797 191.273 284.116 196.742 284.116 196.742C284.116 196.742 296.843 189.961 299.854 194.534L250.357 218.335C252.04 215.596 262.913 194.647 269.073 195.15Z" fill="#C9EDF9"/>
<path d="M169.263 93.257C169.263 93.257 145.545 89.9143 124.927 89.21C104.352 89.21 80.5902 93.257 80.5902 93.257C80.5902 111.508 62.334 111.826 62.334 111.826C62.334 111.826 65.5216 158.248 74.7945 181.578C84.0675 204.908 124.926 218.715 124.926 218.715C124.926 218.715 165.786 204.908 175.059 181.578C184.332 158.248 187.519 111.826 187.519 111.826C187.519 111.826 169.263 111.508 169.263 93.257Z" fill="#063E70"/>
<path d="M124.927 208.227C110.256 202.279 90.9163 191.459 85.8135 178.622C79.274 162.168 75.8573 132.68 74.5493 118.843C82.6971 115.637 88.7786 109.603 91.1075 101.371C99.413 100.25 112.727 98.7522 124.688 98.7324C136.893 99.1617 150.341 100.561 158.802 101.563C161.003 109.125 166.61 115.423 175.303 118.843C173.994 132.684 170.573 162.187 164.04 178.622C158.942 191.449 139.624 202.268 124.927 208.227Z" fill="#064C91"/>
<path d="M120.599 202.824L73.2236 216.804C71.0838 217.436 68.7996 216.332 68.1217 214.338L60.5912 192.192C59.9134 190.199 61.0987 188.071 63.2384 187.44L110.614 173.459C112.754 172.828 115.038 173.932 115.716 175.925L123.246 198.071C123.924 200.064 122.739 202.192 120.599 202.824Z" fill="#65CEFE"/>
<path d="M78.4721 189.364L64.8975 193.371L67.3977 200.723L80.9723 196.717L78.4721 189.364Z" fill="#F7CC7F"/>
<path d="M112.354 177.316L88.282 184.42L88.7487 185.793L112.821 178.689L112.354 177.316Z" fill="#FFCB83"/>
<path d="M73.761 219.127H121.342C124.195 219.127 126.509 216.972 126.509 214.313V193.089C126.509 190.431 124.196 188.275 121.342 188.275H73.761C70.9069 188.275 68.5933 190.431 68.5933 193.089V214.313C68.5933 216.972 70.9069 219.127 73.761 219.127Z" fill="#E74A60"/>
<path d="M108.524 202.135H122.786V194.41H108.524V202.135Z" fill="#6577FF"/>
<path d="M72.2601 193.896H97.5515V192.454H72.2601V193.896Z" fill="#6577FF"/>
<path d="M126.509 206.842H68.5933V212.865H126.509V206.842Z" fill="#6577FF"/>
<path d="M264.709 168.918H143.546V180.734H264.709V168.918Z" fill="#F47257"/>
<path d="M232.481 210.737C205.159 197.279 175.482 188.995 145.014 186.322C146.143 174.006 147.272 161.69 148.401 149.375C183.628 152.465 217.941 162.043 249.532 177.604C243.848 188.648 238.165 199.693 232.481 210.737Z" fill="#65CEFE"/>
<path d="M147.7 179.566C148.469 171.886 149.238 164.205 150.008 156.524C153.21 156.83 156.078 154.905 156.427 152.146C185.796 155.582 214.419 163.572 241.22 175.814C240.028 178.338 241.426 181.454 244.311 182.847C240.822 189.769 237.333 196.69 233.843 203.612C231.188 202.33 228.047 203.39 226.856 205.912C203.32 195.161 178.185 188.145 152.395 185.127C152.743 182.37 150.646 179.848 147.7 179.566Z" fill="#C9EDF9"/>
<path d="M210.748 180.834C208.285 187.441 200.691 190.806 193.646 188.79C186.607 186.757 182.083 179.906 183.666 173.046C185.244 166.198 193.059 162.095 200.981 164.377C208.905 166.651 213.208 174.239 210.748 180.834Z" fill="#50BFA5"/>
<path d="M193.587 186.464C193.784 185.727 193.981 184.989 194.178 184.252C193.117 183.93 192.111 183.478 191.307 182.999C190.635 182.6 190.391 181.79 190.754 181.145C190.768 181.12 190.783 181.094 190.797 181.068C191.197 180.357 192.18 180.13 192.922 180.584C193.677 181.048 194.565 181.462 195.554 181.72C196.993 182.095 198.118 181.853 198.378 180.924C198.624 180.043 197.969 179.26 196.228 178.184C193.711 176.636 192.104 175.019 192.659 172.747C193.16 170.689 195.2 169.457 198.17 169.699C198.365 168.961 198.559 168.223 198.753 167.485C199.627 167.71 200.499 167.94 201.371 168.174C201.184 168.856 200.997 169.538 200.81 170.22C201.762 170.516 202.52 170.847 203.135 171.185C203.888 171.598 204.153 172.461 203.741 173.112C203.316 173.785 202.339 173.978 201.58 173.538C201.012 173.209 200.287 172.873 199.362 172.627C197.656 172.176 196.933 172.692 196.762 173.344C196.56 174.115 197.349 174.832 199.342 176.165C202.147 177.974 202.987 179.611 202.371 181.688C201.756 183.747 199.662 185.039 196.67 184.732C196.451 185.522 196.231 186.312 196.012 187.102C195.205 186.885 194.397 186.673 193.587 186.464Z" fill="#3C8F7C"/>
<path d="M179.494 172.79C172.53 171.293 165.499 170.073 158.418 169.136C158.582 167.952 158.746 166.768 158.91 165.584C166.089 166.534 173.219 167.771 180.28 169.289C180.018 170.456 179.756 171.623 179.494 172.79Z" fill="#50BFA5"/>
<path d="M233.794 190.752C227.314 187.8 220.72 185.112 214.03 182.694C214.454 181.573 214.877 180.452 215.3 179.331C222.084 181.783 228.77 184.509 235.341 187.502C234.826 188.586 234.31 189.669 233.794 190.752Z" fill="#50BFA5"/>
<path d="M246.351 171.205C218.161 176.692 191.317 187.687 167.234 203.611C160.727 193.151 154.22 182.691 147.712 172.231C175.558 153.819 206.596 141.106 239.19 134.762C241.577 146.91 243.964 159.058 246.351 171.205Z" fill="#65CEFE"/>
<path d="M165.19 196.65C161.18 190.087 157.17 183.525 153.16 176.963C155.705 175.309 156.676 172.079 155.289 169.679C179.016 155.013 204.907 144.408 231.987 138.264C232.611 140.977 235.501 142.625 238.461 142.024C240.011 149.594 241.56 157.164 243.11 164.734C240.386 165.288 238.699 167.992 239.323 170.702C215.542 176.098 192.807 185.41 171.97 198.29C170.584 195.891 167.533 195.128 165.19 196.65Z" fill="#C9EDF9"/>
<path d="M212.486 160.307C214.606 167.018 211.006 174.193 204.604 176.763C198.196 179.317 190.773 176.551 187.853 170.159C184.937 163.779 188.26 155.888 195.467 153.009C202.672 150.123 210.371 153.606 212.486 160.307Z" fill="#65CEFE"/>
<path d="M203.174 174.949C202.88 174.246 202.586 173.543 202.291 172.841C201.316 173.214 200.305 173.45 199.425 173.546C198.692 173.626 198.029 173.127 197.912 172.4C197.908 172.37 197.903 172.341 197.898 172.312C197.77 171.511 198.36 170.747 199.178 170.669C200.012 170.59 200.915 170.394 201.798 170.013C203.084 169.459 203.77 168.599 203.409 167.707C203.065 166.861 202.115 166.626 200.189 166.802C197.408 167.062 195.259 166.729 194.313 164.594C193.457 162.661 194.228 160.473 196.565 158.906C196.269 158.204 195.972 157.502 195.675 156.8C196.455 156.462 197.236 156.128 198.019 155.797C198.287 156.45 198.556 157.103 198.824 157.756C199.703 157.428 200.46 157.241 201.116 157.146C201.918 157.028 202.628 157.558 202.712 158.319C202.798 159.106 202.192 159.838 201.371 159.938C200.754 160.013 200.019 160.175 199.19 160.528C197.662 161.18 197.436 162.018 197.698 162.638C198.008 163.371 199.018 163.473 201.284 163.352C204.433 163.128 206.028 163.932 206.811 165.948C207.585 167.949 206.809 170.217 204.418 171.747C204.727 172.504 205.036 173.262 205.344 174.02C204.619 174.326 203.896 174.636 203.174 174.949Z" fill="#C9EDF9"/>
<path d="M184.621 172.427C178.588 175.362 172.671 178.558 166.886 182.008C166.301 180.969 165.716 179.931 165.131 178.892C170.997 175.395 176.997 172.154 183.115 169.178C183.617 170.261 184.119 171.344 184.621 172.427Z" fill="#50BFA5"/>
<path d="M235.41 154.539C228.866 156.031 222.397 157.801 216.017 159.841C215.661 158.699 215.306 157.557 214.95 156.415C221.419 154.346 227.979 152.552 234.614 151.039C234.88 152.206 235.145 153.372 235.41 154.539Z" fill="#65CEFE"/>
<path d="M249.746 191.422C220.429 189.766 191.069 193.775 163.213 203.236C159.378 191.505 155.542 179.774 151.707 168.043C183.915 157.104 217.862 152.469 251.759 154.383C251.088 166.729 250.417 179.075 249.746 191.422Z" fill="#65CEFE"/>
<path d="M162.927 195.994C160.593 188.652 158.258 181.311 155.924 173.969C158.861 172.997 160.63 170.111 159.855 167.446C187.044 159.114 215.362 155.248 243.743 155.992C243.684 158.772 246.136 161.081 249.221 161.23C248.864 168.939 248.507 176.649 248.151 184.358C245.313 184.22 242.964 186.42 242.905 189.198C217.981 188.544 193.114 191.939 169.238 199.256C168.464 196.593 165.63 195.1 162.927 195.994Z" fill="#C9EDF9"/>
<path d="M218.9 172.506C219.324 179.526 213.96 185.58 206.971 186.485C199.98 187.374 193.314 182.863 192.017 175.955C190.722 169.061 195.989 162.244 203.853 161.239C211.717 160.226 218.479 165.5 218.9 172.506Z" fill="#65CEFE"/>
<path d="M206.008 184.376C205.892 183.623 205.776 182.87 205.66 182.117C204.6 182.237 203.538 182.216 202.642 182.092C201.895 181.988 201.363 181.342 201.429 180.609C201.432 180.579 201.434 180.55 201.437 180.52C201.51 179.713 202.286 179.12 203.117 179.247C203.963 179.376 204.907 179.409 205.878 179.259C207.291 179.04 208.186 178.378 208.051 177.425C207.922 176.521 207.039 176.059 205.085 175.754C202.263 175.318 200.216 174.465 199.813 172.165C199.447 170.082 200.759 168.156 203.467 167.216C203.349 166.464 203.23 165.711 203.112 164.959C203.969 164.824 204.827 164.693 205.685 164.567C205.788 165.265 205.891 165.963 205.994 166.661C206.948 166.561 207.745 166.568 208.418 166.637C209.243 166.722 209.814 167.409 209.707 168.167C209.596 168.95 208.812 169.509 207.973 169.402C207.343 169.323 206.574 169.298 205.663 169.435C203.986 169.688 203.552 170.444 203.657 171.108C203.781 171.894 204.757 172.242 207.033 172.686C210.211 173.247 211.592 174.419 211.863 176.564C212.13 178.691 210.794 180.694 208.041 181.584C208.158 182.393 208.274 183.203 208.391 184.013C207.596 184.13 206.802 184.251 206.008 184.376Z" fill="#C9EDF9"/>
<path d="M188.246 177.352C181.532 178.702 174.867 180.333 168.27 182.242C167.949 181.092 167.629 179.943 167.309 178.793C173.999 176.857 180.757 175.204 187.565 173.835C187.792 175.007 188.019 176.179 188.246 177.352Z" fill="#50BFA5"/>
<path d="M243.067 172.588C236.207 172.415 229.351 172.529 222.517 172.928C222.45 171.735 222.383 170.542 222.316 169.349C229.246 168.945 236.198 168.829 243.154 169.004C243.125 170.199 243.096 171.394 243.067 172.588Z" fill="#50BFA5"/>
<path d="M264.709 168.918H143.546V218.595H264.709V168.918Z" fill="#94C21A"/>
<path d="M264.709 205.912H234.728C233.398 205.912 232.321 206.963 232.321 208.26C232.321 209.557 233.398 210.608 234.728 210.608H230.84C229.511 210.608 228.433 211.659 228.433 212.956C228.433 214.253 229.511 215.304 230.84 215.304H231.513C230.184 215.304 229.106 216.355 229.106 217.652C229.106 217.988 229.179 218.306 229.309 218.595H264.709V205.912Z" fill="#B32E69"/>
<path d="M258.308 171.365H148.011V175.222H258.308V171.365Z" fill="#E74A60"/>
<path d="M200.84 181.602H149.412V182.882H200.84V181.602Z" fill="#E74A60"/>
<path d="M250.457 190.679C254.09 195.502 252.839 202.157 247.661 205.542C242.484 208.927 235.34 207.761 231.707 202.938C228.073 198.114 229.324 191.46 234.502 188.075C239.68 184.69 246.823 185.855 250.457 190.679Z" fill="#FFCB83"/>
<path d="M248.949 191.665C251.998 195.712 250.947 201.296 246.603 204.137C242.258 206.977 236.264 205.999 233.215 201.951C230.166 197.904 231.216 192.32 235.561 189.48C239.905 186.639 245.899 187.617 248.949 191.665Z" fill="#E6A748"/>
<path d="M242.191 203.107L241.772 201.664C241.064 201.811 240.342 201.861 239.726 201.831C239.212 201.807 238.807 201.414 238.8 200.935L238.8 200.877C238.792 200.348 239.268 199.922 239.834 199.957C240.411 199.992 241.047 199.956 241.685 199.795C242.614 199.561 243.153 199.067 242.977 198.459C242.809 197.882 242.182 197.649 240.865 197.573C238.962 197.466 237.551 197.006 237.124 195.533C236.735 194.197 237.442 192.894 239.094 192.136L238.675 190.693L240.273 190.291L240.661 191.627C241.261 191.502 241.77 191.454 242.207 191.452C242.741 191.45 243.175 191.853 243.182 192.35C243.189 192.864 242.737 193.283 242.185 193.272C241.772 193.263 241.274 193.298 240.698 193.443C239.638 193.71 239.419 194.222 239.543 194.647C239.688 195.148 240.352 195.323 241.878 195.46C244.004 195.609 245.029 196.248 245.426 197.614C245.818 198.966 245.126 200.379 243.339 201.155L243.789 202.705L242.191 203.107Z" fill="white"/>
<path d="M230.276 183.45C230.276 189.343 225.148 194.12 218.822 194.12C212.497 194.12 207.369 189.343 207.369 183.45C207.369 177.558 212.497 172.781 218.822 172.781C225.148 172.781 230.276 177.558 230.276 183.45Z" fill="#FFCB83"/>
<path d="M222.514 191.729C227.418 189.836 229.747 184.599 227.716 180.03C225.684 175.462 220.062 173.293 215.158 175.185C210.254 177.077 207.925 182.315 209.957 186.883C211.988 191.452 217.61 193.621 222.514 191.729Z" fill="#E6A748"/>
<path d="M215.847 189.199L216.394 187.794C215.723 187.535 215.101 187.19 214.615 186.836C214.21 186.541 214.12 186.003 214.41 185.607L214.445 185.559C214.765 185.123 215.417 185.029 215.859 185.36C216.31 185.697 216.853 186.008 217.474 186.218C218.379 186.524 219.125 186.407 219.355 185.816C219.574 185.254 219.204 184.727 218.173 183.961C216.681 182.854 215.81 181.723 216.368 180.288C216.875 178.987 218.257 178.299 220.077 178.562L220.624 177.157L222.18 177.682L221.673 178.984C222.241 179.203 222.687 179.435 223.046 179.668C223.484 179.952 223.591 180.514 223.29 180.925C222.979 181.35 222.352 181.451 221.907 181.146C221.574 180.917 221.144 180.68 220.584 180.49C219.552 180.142 219.057 180.443 218.896 180.857C218.706 181.346 219.141 181.844 220.306 182.773C221.954 184.033 222.399 185.104 221.881 186.435C221.369 187.751 219.931 188.538 217.99 188.216L217.403 189.725L215.847 189.199Z" fill="#EEFBFF"/>
<path d="M258.308 189.603H206.435V215.502H258.308V189.603Z" fill="#E74A60"/>
<path d="M232.321 208.26C232.321 209.557 233.398 210.608 234.728 210.608H230.84C229.511 210.608 228.433 211.659 228.433 212.956C228.433 214.253 229.511 215.304 230.84 215.304H231.513C231.169 215.304 230.842 215.375 230.546 215.502H258.308V205.913H234.728C233.399 205.912 232.321 206.964 232.321 208.26Z" fill="#B32E69"/>
<path d="M9.17505 219.104C9.17505 219.522 9.67661 219.861 10.2953 219.861H289.597C290.216 219.861 290.718 219.522 290.718 219.104C290.718 218.685 290.216 218.346 289.597 218.346H10.2955C9.67661 218.346 9.17505 218.685 9.17505 219.104Z" fill="#064C91"/>
<path d="M265.013 220H234.052C232.809 220 231.802 219.062 231.802 217.905C231.802 216.747 232.809 215.809 234.052 215.809H265.013C266.256 215.809 267.263 216.747 267.263 217.905C267.263 219.062 266.255 220 265.013 220Z" fill="#E6A748"/>
<path d="M264.599 215.809H233.208C232.084 215.809 231.173 214.961 231.173 213.914V213.514C231.173 212.467 232.084 211.618 233.208 211.618H264.599C265.722 211.618 266.633 212.467 266.633 213.514V213.914C266.633 214.96 265.722 215.809 264.599 215.809Z" fill="#FFCB83"/>
<path d="M268.017 211.618H237.055C235.813 211.618 234.806 210.68 234.806 209.523C234.806 208.365 235.813 207.427 237.055 207.427H268.017C269.259 207.427 270.266 208.365 270.266 209.523C270.266 210.68 269.259 211.618 268.017 211.618Z" fill="#E6A748"/>
<path d="M264.871 200.837C264.871 200.837 264.62 203.752 264.824 204.699C264.933 205.206 265.541 206.25 265.262 206.728C264.983 207.205 264.664 207.325 264.664 207.325L257.437 207.431C257.043 207.437 257.303 207.205 257.621 206.991C258.14 206.641 258.56 206.41 260.22 205.674C260.328 205.626 260.722 205.397 260.864 205.317C261.224 205.116 261.586 204.798 261.898 204.481C262.417 203.951 262.462 201.384 262.462 201.384L264.871 200.837Z" fill="#F7A491"/>
<path d="M259.222 162.091C259.222 162.091 256.116 160.664 256.713 163.767C257.311 166.869 261.863 201.763 261.863 201.763L266.126 201.983C266.126 201.983 266.67 190.35 266.551 188.679C266.431 187.008 265.725 184.424 265.725 184.424L265.363 174.103L261.341 161.36L259.222 162.091Z" fill="#063E70"/>
<path d="M260.865 205.317C262.776 205.766 264.189 205.461 264.979 205.169C265.183 205.698 265.453 206.362 265.31 206.745C265.135 207.214 264.906 207.422 264.685 207.427C262.939 207.469 258.269 207.424 256.937 207.44C256.752 207.442 256.649 207.243 256.769 207.112C257.099 206.751 260.722 205.397 260.865 205.317Z" fill="#063E70"/>
<path d="M256.713 141.121C256.713 141.121 254.087 136.413 253.679 134.684C253.272 132.956 251.861 124.252 251.98 123.692C252.099 123.131 254.33 121.782 254.054 121.306C253.779 120.83 251.654 120.829 251.167 120.87C250.68 120.911 249.703 121.175 249.284 121.496C248.865 121.818 249.754 132.248 250.02 134.494C250.285 136.74 253.549 143.655 253.549 143.655L256.713 141.121Z" fill="#F7A491"/>
<path d="M277.177 177.812C277.177 177.812 279.344 175.696 279.826 174.84C280.084 174.382 280.319 173.215 280.858 173.008C281.397 172.801 281.725 172.895 281.725 172.895L287.41 177.054C287.72 177.281 287.361 177.308 286.97 177.288C286.33 177.255 285.847 177.188 284.061 176.785C283.945 176.759 283.483 176.706 283.319 176.684C282.903 176.63 282.407 176.663 281.95 176.727C281.19 176.834 279.418 178.801 279.418 178.801L277.177 177.812Z" fill="#F7A491"/>
<path d="M283.318 176.684C282.137 175.213 280.833 174.621 280.022 174.384C280.222 173.854 280.44 173.16 280.81 172.947C281.263 172.686 281.576 172.74 281.751 172.865C283.135 173.857 286.758 176.571 287.803 177.34C287.949 177.448 287.894 177.662 287.713 177.694C287.212 177.781 283.482 176.706 283.318 176.684Z" fill="#063E70"/>
<path d="M277.228 139.686C275.88 137.052 272.892 135.601 269.998 136.303C268.96 134.994 267.354 134.078 265.683 133.858C262.387 133.423 258.134 134.912 258.568 138.118C257.527 140.36 257.782 143.449 259.862 144.963C259.48 147.91 262.652 150.524 266.406 150.172C267.916 152.114 270.542 153.253 272.997 152.809C273.587 152.703 274.482 152.503 274.636 152.528C274.444 152.508 278.918 155.237 282.003 150.377C285.152 145.417 282.052 139.872 277.228 139.686Z" fill="#031322"/>
<path d="M257.971 163.215C257.971 163.215 264.938 160.33 265.048 160.658C265.921 163.279 268.639 162.434 270.252 167.05C270.928 168.983 271.621 181.841 271.621 181.841C271.621 181.841 274.368 179.717 278.294 176.006C278.595 175.721 281.547 178.336 281.547 178.336C273.754 188.144 270.393 188.656 269.092 188.107C266.378 186.961 260.651 170.926 260.66 170.928C259.973 169.68 257.971 163.215 257.971 163.215Z" fill="#064C91"/>
<path d="M269.521 145.101C269.521 145.101 279.592 145.089 281.747 144.973C283.699 144.869 291.438 145.052 291.741 145.019C292.043 144.987 294.044 141.831 294.376 142.17C294.709 142.508 293.263 143.735 293.71 144.053C294.157 144.371 298.961 143.658 298.897 143.989C298.777 144.608 295.975 144.529 295.978 144.828C295.981 145.127 298.911 144.66 299.11 145.156C299.308 145.652 296.291 145.359 296.171 145.58C296.05 145.801 298.969 146.207 298.67 146.668C298.508 146.919 296.084 146.25 296.096 146.591C296.108 146.932 297.876 147.71 297.659 147.982C297.443 148.254 296.271 147.147 295.245 147.133C294.219 147.119 293.484 146.621 291.847 147.039C291.038 147.246 284.863 147.949 279.646 148.364C274.297 148.79 269.913 148.925 269.913 148.925L269.521 145.101Z" fill="#F7A491"/>
<path d="M254.59 151.733C254.456 150.227 254.774 149.067 254.847 148.567C254.358 147.003 253.317 143.665 252.943 143.009C252.943 143.009 254.696 139.87 256.492 139.892C256.492 139.892 258.324 143.741 259.741 144.429C259.762 144.424 260.243 144.629 260.454 144.628C261.823 144.618 266.604 144.483 267.496 144.468L266.994 150.788C263.529 157.115 264.468 160.435 265.786 161.663C266.406 162.241 257.14 164.585 256.713 163.767C256.21 162.802 254.86 154.778 254.59 151.733Z" fill="#FFCB83"/>
<path d="M265.067 144.707C265.949 144.314 272.331 144.511 272.331 144.511C272.331 144.511 273.223 148.651 272.502 149.646C272.502 149.646 266.796 150.438 266.958 150.874L265.067 144.707Z" fill="#FFCB83"/>
<path d="M263.394 142.047C263.394 142.047 263.282 144.305 263.396 145.245C263.509 146.186 262.36 148.391 260.22 148.429C258.08 148.467 259.906 146.313 260.094 145.388C260.281 144.462 260.506 140.839 260.506 140.839L263.394 142.047Z" fill="#F7A491"/>
<path d="M260.506 140.839C260.506 140.839 260.453 141.68 260.378 142.655C261.053 143.405 262.09 143.788 263.352 143.331C263.365 142.632 263.394 142.046 263.394 142.046L260.506 140.839Z" fill="#F47458"/>
<path d="M263.571 135.317C263.571 135.317 264.783 135.655 265.463 136.784C266.143 137.913 266.429 141.127 263.816 142.451C261.203 143.774 259.412 141.55 259.531 139.499C259.651 137.449 260.324 134.746 263.571 135.317Z" fill="#F7A491"/>
<path d="M259.006 138.822C259.183 139.33 259.584 139.664 259.902 139.568C260.219 139.472 260.333 138.983 260.156 138.475C259.979 137.967 259.578 137.633 259.261 137.729C258.943 137.825 258.829 138.314 259.006 138.822Z" fill="#F7A491"/>
<path d="M263.207 135.227C263.207 135.227 264.533 138.606 265.89 138.988C267.247 139.369 267.105 141.018 267.105 141.018C267.105 141.018 267.356 137.206 266.129 136.249C264.901 135.292 263.207 135.227 263.207 135.227Z" fill="#031322"/>
<path d="M265.292 139.634C265.071 140.155 265.198 140.689 265.576 140.828C265.954 140.967 266.439 140.658 266.66 140.137C266.881 139.616 266.754 139.082 266.376 138.942C265.998 138.803 265.513 139.113 265.292 139.634Z" fill="#F7A491"/>
<path d="M248.905 122.299C248.905 122.299 251.855 122.419 252.202 122.419C252.548 122.419 253.556 121.448 253.556 121.448L248.905 122.299Z" fill="#F47458"/>
<path d="M258.561 105.619C262.195 110.443 260.943 117.097 255.765 120.482C250.588 123.867 243.445 122.702 239.811 117.878C236.177 113.055 237.429 106.4 242.606 103.015C247.784 99.6301 254.927 100.796 258.561 105.619Z" fill="#FFCB83"/>
<path d="M257.052 106.605C260.102 110.653 259.052 116.236 254.707 119.077C250.362 121.918 244.368 120.939 241.319 116.892C238.27 112.844 239.32 107.26 243.665 104.42C248.009 101.579 254.003 102.558 257.052 106.605Z" fill="#E6A748"/>
<path d="M250.295 118.046L249.876 116.604C249.168 116.751 248.446 116.801 247.83 116.771C247.316 116.747 246.911 116.354 246.904 115.875L246.904 115.817C246.896 115.288 247.372 114.862 247.938 114.897C248.515 114.932 249.151 114.896 249.789 114.735C250.718 114.501 251.257 114.007 251.081 113.399C250.913 112.822 250.286 112.589 248.969 112.513C247.066 112.406 245.655 111.946 245.228 110.473C244.84 109.137 245.546 107.834 247.198 107.076L246.779 105.633L248.377 105.23L248.765 106.567C249.365 106.442 249.874 106.393 250.311 106.392C250.845 106.39 251.279 106.793 251.286 107.29C251.293 107.805 250.841 108.223 250.289 108.212C249.876 108.203 249.378 108.238 248.802 108.383C247.742 108.65 247.524 109.162 247.647 109.587C247.792 110.088 248.456 110.263 249.982 110.4C252.108 110.549 253.133 111.187 253.53 112.554C253.922 113.906 253.23 115.319 251.443 116.095L251.893 117.645L250.295 118.046Z" fill="#EEFBFF"/>
<path d="M252.202 122.419L253.42 121.4C253.42 121.4 252.845 120.76 253.084 120.637C253.472 120.437 254.137 121.21 254.078 121.398C254.019 121.585 253.304 122.192 253.304 122.192L252.202 122.419Z" fill="#F7A491"/>
<path d="M34.1576 64.4505L36.6201 63.2614L39.0677 64.4771C39.3466 64.6156 39.6747 64.396 39.623 64.1057L39.1701 61.5564L41.1676 59.7637C41.3949 59.5595 41.2724 59.2009 40.9601 59.157L38.2178 58.7705L37.0047 56.4468C36.8665 56.1822 36.4626 56.18 36.3211 56.4432L35.0791 58.7536L32.3321 59.1103C32.0193 59.151 31.8922 59.5081 32.1171 59.7149L34.092 61.5292L33.6073 64.0735C33.5516 64.3629 33.8772 64.5859 34.1576 64.4505Z" fill="#65CEFE"/>
<path d="M222.694 24.8255L225.157 23.6364L227.604 24.8521C227.883 24.9906 228.211 24.771 228.16 24.4807L227.706 21.9316L229.704 20.1386C229.931 19.9345 229.809 19.5759 229.496 19.5319L226.754 19.1455L225.541 16.8218C225.403 16.5572 224.999 16.555 224.857 16.8182L223.615 19.1286L220.868 19.4854C220.555 19.526 220.428 19.883 220.653 20.0898L222.628 21.9041L222.143 24.4484C222.088 24.7381 222.413 24.9609 222.694 24.8255Z" fill="#C9EDF9"/>
<path d="M239.26 66.723L239.653 69.2056L235.436 70.2374L235.531 73.9335L232.51 75.1865L233.191 76.6111L237.231 74.9355L237.141 71.4327L241.529 70.3594L240.936 66.6235L239.26 66.723Z" fill="#FF6E53"/>
<path d="M193.912 28.4145L194.306 30.8972L190.088 31.9288L190.183 35.6249L187.163 36.8779L187.843 38.3025L191.884 36.627L191.794 33.1242L196.181 32.0507L195.588 28.3149L193.912 28.4145Z" fill="#65CEFE"/>
<path d="M200.427 94.9312L201.239 93.0522C200.344 92.6719 199.52 92.1768 198.88 91.6757C198.346 91.2576 198.252 90.5248 198.665 90.0011L198.715 89.9379C199.171 89.361 200.059 89.2625 200.641 89.7308C201.234 90.2081 201.953 90.6533 202.784 90.9651C203.994 91.4194 205.011 91.295 205.353 90.5039C205.678 89.7522 205.204 89.0224 203.847 87.938C201.883 86.3733 200.761 84.8023 201.591 82.8837C202.344 81.1432 204.251 80.2723 206.702 80.7098L207.515 78.8308L209.596 79.6119L208.843 81.3526C209.601 81.6745 210.194 82.0091 210.667 82.3402C211.246 82.7449 211.363 83.5108 210.934 84.0538C210.49 84.6153 209.635 84.7241 209.048 84.2912C208.609 83.9669 208.039 83.626 207.29 83.3446C205.909 82.8266 205.224 83.2129 204.985 83.7669C204.702 84.4197 205.266 85.114 206.797 86.4246C208.964 88.2038 209.513 89.6743 208.743 91.4544C207.981 93.2149 205.993 94.216 203.38 93.6949L202.507 95.7125L200.427 94.9312Z" fill="#65CEFE"/>
<path d="M66.8167 36.8592L67.6296 34.98C66.7346 34.5999 65.9099 34.1046 65.2699 33.6036C64.7358 33.1854 64.6422 32.4526 65.0556 31.9291L65.1054 31.8659C65.5608 31.2888 66.4494 31.1905 67.031 31.6587C67.624 32.1359 68.3435 32.5812 69.1745 32.8929C70.3846 33.3472 71.4011 33.223 71.7433 32.4317C72.0684 31.6802 71.5941 30.9502 70.2369 29.866C68.273 28.3013 67.1508 26.7303 67.9809 24.8117C68.7338 23.071 70.6405 22.2002 73.092 22.6378L73.9049 20.7588L75.9858 21.5399L75.2328 23.2804C75.9908 23.6025 76.5838 23.9371 77.0575 24.2682C77.6365 24.6729 77.753 25.4387 77.3242 25.9816C76.8806 26.5433 76.0253 26.6521 75.4384 26.2192C74.9987 25.8947 74.4292 25.5538 73.6797 25.2726C72.2997 24.7546 71.6143 25.1409 71.3748 25.6949C71.0924 26.3475 71.6559 27.042 73.1869 28.3525C75.3542 30.1317 75.9027 31.6022 75.1327 33.3824C74.3712 35.1429 72.3833 36.144 69.7705 35.6228L68.8976 37.6404L66.8167 36.8592Z" fill="#FF6E53"/>
<path d="M181.953 77.2491C182.166 77.5698 182.105 77.9853 181.808 78.2409C181.226 78.7425 180.299 79.3288 179.169 79.7237C177.517 80.3015 175.683 80.3573 174.03 79.6582C172.997 79.2211 172.052 78.434 171.385 77.417L170.409 77.7582C170.077 77.8742 169.707 77.7177 169.583 77.4085L169.573 77.385C169.449 77.0759 169.617 76.7313 169.949 76.6153L170.75 76.3351C170.621 76.0874 170.53 75.933 170.474 75.7929C170.38 75.5597 170.293 75.2712 170.22 74.9504L169.394 75.2392C169.062 75.3552 168.693 75.1987 168.568 74.8896C168.443 74.5806 168.612 74.236 168.943 74.12L169.945 73.7699C169.788 72.6009 169.953 71.4522 170.422 70.4898C171.22 68.8541 172.722 67.6902 174.449 67.0864C175.456 66.7343 176.284 66.6302 176.954 66.6236C177.42 66.619 177.806 66.9585 177.828 67.392L177.829 67.4056C177.852 67.855 177.475 68.2315 176.992 68.2493C176.444 68.2697 175.795 68.3717 175.044 68.6343C173.943 69.0193 172.973 69.7311 172.416 70.8302C172.103 71.4718 171.956 72.2415 172.123 73.0083L177.755 71.0388C178.087 70.9227 178.457 71.0792 178.581 71.3883C178.706 71.6974 178.538 72.042 178.206 72.158L172.323 74.2151C172.401 74.4806 172.48 74.7457 172.545 74.909C172.63 75.1187 172.715 75.3286 172.852 75.5999L178.748 73.5385C179.087 73.4201 179.464 73.5798 179.592 73.8954C179.719 74.2109 179.547 74.5628 179.208 74.6813L173.563 76.6552C174.011 77.27 174.596 77.7306 175.216 77.9929C176.446 78.4939 177.579 78.4704 178.831 78.0326C179.594 77.7658 180.228 77.3998 180.711 77.0454C181.107 76.7538 181.688 76.8487 181.953 77.2491Z" fill="#C9EDF9"/>
<path d="M159.74 10.6256C159.953 10.9462 159.892 11.3617 159.595 11.6173C159.013 12.1189 158.085 12.7052 156.956 13.1003C155.304 13.678 153.47 13.7338 151.817 13.0346C150.784 12.5977 149.839 11.8105 149.172 10.7934L148.195 11.1347C147.864 11.2508 147.494 11.0941 147.369 10.7852L147.359 10.7615C147.235 10.4525 147.403 10.1079 147.735 9.99179L148.536 9.71154C148.407 9.46389 148.317 9.30949 148.26 9.16937C148.166 8.93615 148.079 8.64764 148.007 8.32685L147.181 8.6157C146.849 8.73182 146.479 8.57515 146.354 8.26619C146.23 7.95708 146.398 7.61245 146.73 7.49649L147.731 7.14634C147.574 5.97734 147.74 4.82863 148.209 3.86625C149.006 2.2305 150.508 1.0667 152.235 0.462907C153.242 0.110977 154.071 0.00669441 154.741 4.50321e-05C155.206 -0.00449601 155.593 0.334953 155.615 0.76846L155.615 0.78208C155.638 1.23148 155.261 1.6079 154.779 1.62574C154.23 1.64618 153.582 1.74817 152.831 2.01074C151.729 2.39592 150.759 3.10757 150.203 4.20667C149.89 4.84825 149.743 5.61796 149.909 6.38475L155.542 4.41523C155.873 4.29911 156.243 4.45578 156.368 4.76473C156.492 5.07385 156.324 5.41848 155.993 5.53444L150.11 7.59152C150.188 7.85701 150.266 8.12218 150.332 8.2855C150.417 8.49536 150.501 8.70522 150.639 8.97638L156.534 6.9149C156.873 6.79651 157.251 6.95627 157.378 7.27187C157.505 7.58747 157.334 7.93923 156.995 8.05779L151.35 10.0317C151.797 10.6467 152.383 11.1071 153.003 11.3693C154.233 11.8703 155.366 11.8468 156.617 11.4092C157.38 11.1423 158.015 10.7764 158.497 10.4219C158.894 10.1303 159.474 10.2252 159.74 10.6256Z" fill="#C9EDF9"/>
<path d="M72.561 66.7453L70.0034 66.9871L69.1312 63.1966L65.3451 63.1206L64.1945 60.3833L62.7073 60.9259L64.2461 64.5868L67.8339 64.659L68.7414 68.6021L72.5897 68.2381L72.561 66.7453Z" fill="#FF6E53"/>
<path d="M128.272 31.4518L125.715 31.6936L124.842 27.9032L121.056 27.8269L119.906 25.0898L118.418 25.6325L119.957 29.2932L123.545 29.3656L124.452 33.3086L128.301 32.9447L128.272 31.4518Z" fill="#FF6E53"/>
<path d="M118.795 65.4807L121.086 66.1849C121.086 66.1849 124.72 65.0879 125.078 64.3982C125.436 63.7081 125.537 62.0343 126.054 61.9885C126.571 61.943 127.57 62.0996 127.808 63.2453C127.981 64.0768 126.673 66.4804 126.878 66.7362C127.005 66.8962 128.31 67.3361 129.269 67.6431C129.899 67.8448 130.354 68.3618 130.451 68.9853L130.451 68.9872C130.517 69.4088 130.26 69.8192 129.837 69.9715L129.178 70.2088L129.388 70.8429C129.544 71.315 129.267 71.8224 128.766 71.9788L128.256 72.1381L128.419 72.5244C128.629 73.0218 128.334 73.5865 127.785 73.735L127.339 73.8555L127.358 73.9668C127.434 74.4284 127.124 74.8726 126.643 74.9902L126.2 75.0982L120.097 73.2217C119.525 73.0458 118.998 72.761 118.55 72.3848L116.523 71.3882C116.305 71.2811 116.204 71.0386 116.287 70.8179L118.166 65.7767C118.257 65.5331 118.537 65.4014 118.795 65.4807Z" fill="#FFCB83"/>
<path d="M271.858 96.2474L272.437 93.5724L275.131 92.5007C275.438 92.3786 275.461 91.9817 275.17 91.8291L272.618 90.4892L272.357 87.7712C272.327 87.4616 271.929 87.3182 271.683 87.5288L269.527 89.3757L266.671 88.7676C266.346 88.6984 266.077 89.0067 266.216 89.2894L267.435 91.7707L265.932 94.1128C265.761 94.3797 265.992 94.7135 266.323 94.6778L269.233 94.3643L271.16 96.4198C271.379 96.6541 271.792 96.5521 271.858 96.2474Z" fill="#FFCB83"/>
<path d="M35.4613 97.1117L35.1936 95.3937L36.5609 94.2144C36.7167 94.0801 36.6394 93.8376 36.4301 93.8042L34.5935 93.5105L33.812 91.9345C33.7229 91.7549 33.4516 91.7484 33.3529 91.9234L32.4854 93.4601L30.635 93.6655C30.4242 93.689 30.3338 93.9273 30.482 94.0689L31.7826 95.3122L31.4205 97.0152C31.3792 97.2092 31.5948 97.3631 31.7851 97.2755L33.4563 96.5074L35.083 97.3545C35.2683 97.4508 35.4918 97.3074 35.4613 97.1117Z" fill="#FFCB83"/>
<path d="M242.784 48.5073L242.516 46.7891L243.884 45.6097C244.039 45.4755 243.962 45.233 243.753 45.1996L241.916 44.9059L241.135 43.3298C241.046 43.1505 240.775 43.144 240.676 43.3188L239.808 44.8555L237.958 45.061C237.747 45.0845 237.657 45.3227 237.805 45.4644L239.105 46.7077L238.743 48.4106C238.702 48.6046 238.918 48.7585 239.108 48.6709L240.779 47.9028L242.406 48.7499C242.591 48.8462 242.815 48.7029 242.784 48.5073Z" fill="#FFCB83"/>
<path d="M94.6371 51.8622L94.3411 49.9628L95.8529 48.659C96.0251 48.5105 95.9398 48.2425 95.7084 48.2054L93.678 47.8809L92.814 46.1386C92.7156 45.9401 92.4155 45.9328 92.3063 46.1264L91.3474 47.8251L89.3017 48.0521C89.0688 48.0779 88.9687 48.3416 89.1325 48.4981L90.5703 49.8728L90.1701 51.7554C90.1245 51.9698 90.3624 52.1399 90.5729 52.0431L92.4204 51.1939L94.2189 52.1303C94.4236 52.237 94.6708 52.0786 94.6371 51.8622Z" fill="#FFCB83"/>
<path d="M206.267 60.0815L205.971 58.182L207.483 56.8783C207.655 56.7298 207.569 56.4618 207.338 56.4247L205.308 56.1L204.444 54.3579C204.345 54.1592 204.045 54.1521 203.936 54.3457L202.977 56.0444L200.931 56.2714C200.698 56.2972 200.598 56.5609 200.762 56.7174L202.2 58.0921L201.8 59.9747C201.754 60.1891 201.992 60.359 202.203 60.2624L204.05 59.4132L205.849 60.3496C206.053 60.4563 206.3 60.2979 206.267 60.0815Z" fill="#FFCB83"/>
<path d="M168.378 51.8622L168.082 49.9628L169.594 48.659C169.766 48.5105 169.681 48.2425 169.449 48.2054L167.419 47.8809L166.555 46.1386C166.457 45.9401 166.157 45.9328 166.047 46.1264L165.089 47.8251L163.043 48.0521C162.81 48.0779 162.71 48.3416 162.873 48.4981L164.311 49.8728L163.911 51.7554C163.865 51.9698 164.103 52.1399 164.314 52.0431L166.161 51.1939L167.96 52.1303C168.165 52.237 168.412 52.0786 168.378 51.8622Z" fill="#FFCB83"/>
<path d="M72.7986 152.388H37.3239C35.5769 152.388 34.1606 153.707 34.1606 155.334V179.532C34.1606 181.159 35.5769 182.479 37.3239 182.479H72.7986C74.5456 182.479 75.9618 181.159 75.9618 179.532V155.334C75.9618 153.707 74.5456 152.388 72.7986 152.388Z" fill="#50BFA5"/>
<path d="M35.9046 218.595H74.5034C77.5477 218.595 80.0155 216.296 80.0155 213.46V136.239C80.0155 133.404 77.5475 131.104 74.5032 131.104H35.9046C32.8603 131.104 30.3926 133.404 30.3926 136.239V213.46C30.3926 216.296 32.8603 218.595 35.9046 218.595Z" fill="#063E70"/>
<path d="M77.6146 203.057V141.022C77.6146 137.58 74.6196 134.791 70.9252 134.791H40.2156C36.521 134.791 33.5261 137.58 33.5261 141.022V203.057C33.5261 206.499 36.521 209.289 40.2156 209.289H70.9252C74.6196 209.289 77.6146 206.499 77.6146 203.057Z" fill="#C9EDF9"/>
<path d="M57.4813 203.418H53.3497C52.0082 203.418 50.9207 202.405 50.9207 201.155V198.318C50.9207 197.068 52.0082 196.055 53.3497 196.055H57.4813C58.8228 196.055 59.9104 197.068 59.9104 198.318V201.155C59.9104 202.405 58.8228 203.418 57.4813 203.418Z" fill="#064C91"/>
<path d="M58.9229 198.279H58.0241V195.255C58.0241 193.914 56.8527 192.823 55.4131 192.823C53.9732 192.823 52.8019 193.914 52.8019 195.255V197.688H51.9031V195.255C51.9031 193.452 53.4776 191.985 55.4131 191.985C57.3485 191.985 58.9231 193.452 58.9231 195.255V198.279H58.9229Z" fill="#064C91"/>
<path d="M56.2262 199.269C56.2262 199.592 55.9453 199.854 55.5985 199.854C55.2519 199.854 54.9707 199.592 54.9707 199.269C54.9707 198.946 55.2519 198.685 55.5985 198.685C55.9453 198.684 56.2262 198.946 56.2262 199.269Z" fill="#C9EDF9"/>
<path d="M55.5984 198.871L54.8279 201.861H56.3689L55.5984 198.871Z" fill="#C9EDF9"/>
<path d="M75.3868 107.135C75.3868 107.135 75.5186 106.888 75.5106 106.315C75.5007 105.607 75.3483 104.538 75.318 104.443C75.263 104.272 77.7219 103.554 77.7219 103.554C77.7219 103.554 81.6673 103.366 82.2545 102.956C82.8417 102.546 83.336 102.377 83.062 102.802C82.5665 103.571 81.4104 104.7 81.1536 104.853C80.8966 105.007 77.8321 105.725 77.7771 105.725C77.7221 105.725 77.7403 107.52 77.7403 107.52L75.3868 107.135Z" fill="#F7A491"/>
<path d="M77.9464 106.37C77.9464 106.37 75.392 105.966 75.3453 106.204C74.3131 111.469 74.138 113.209 74.0242 113.264C73.6352 113.45 68.0751 108.904 67.1563 108.607C66.7169 108.465 66.2386 108.488 65.7801 108.501C64.6871 108.531 64.4714 108.535 64.4714 108.535C64.4401 108.537 64.4314 108.537 64.4314 108.537L64.4373 109.495C65.6688 110.527 68.4879 126.161 68.7254 126.151C68.9905 126.139 74.5628 127.446 74.4646 127.008C74.4486 126.937 70.6868 124.07 69.62 119.931C69.2619 118.542 69.085 117.046 68.8909 115.736C70.1289 116.315 74.9644 118.531 75.7308 118.239C78.1146 117.327 77.9464 106.37 77.9464 106.37Z" fill="#4054E7"/>
<path d="M87.5425 134.13C87.5425 134.13 92.7267 137.913 92.8998 138.583C93.1489 139.549 97.8962 138.279 96.7512 138.083C96.4878 138.038 95.645 137.838 95.5757 137.804C95.2051 137.619 90.5922 132.441 90.5922 132.441L87.5425 134.13Z" fill="#F7A491"/>
<path d="M98.9774 138.083L95.6675 137.832C95.6675 137.832 94.7214 138.561 92.9032 138.595C92.9032 138.595 92.6124 139.369 92.7507 140.274C92.7745 140.43 92.8025 140.901 92.9714 140.891C93.5832 140.852 95.2123 140.474 97.0688 140.128C97.0688 140.128 99.5637 139.636 101.005 138.833C102.446 138.03 98.9774 138.083 98.9774 138.083Z" fill="#E74A60"/>
<path d="M64.3135 124.64C64.3135 124.64 68.1099 125.234 72.3086 124.319C77.1669 123.261 82.5392 122.282 84.1132 123.134C85.38 123.82 93.2919 134.957 93.2919 134.957L90.2366 137.034L81.525 127.947C81.525 127.947 70.4105 131.767 67.9142 131.344C62.2289 130.38 62.1483 126.15 64.3135 124.64Z" fill="#E6A748"/>
<path d="M68.4638 122.393L72.2623 126.598L65.2158 128.599L64.3135 124.64L68.4638 122.393Z" fill="#E6A748"/>
<path d="M76.1836 141.602C76.1836 141.602 75.9526 147.443 75.8095 148.432C75.6669 149.417 78.4704 152.383 78.1122 151.351C78.0298 151.114 77.8174 150.328 77.8171 150.255C77.8153 149.863 78.8568 143.2 78.8568 143.2L76.1836 141.602Z" fill="#F7A491"/>
<path d="M79.9048 153.48L77.8343 150.344C77.8343 150.344 76.6959 149.915 75.7995 148.441C75.7995 148.441 74.9307 148.57 74.1419 149.113C74.0059 149.207 73.0787 149.839 73.1431 149.984C73.3809 150.521 74.6436 151.67 76.0241 152.925C76.0241 152.925 77.9811 154.395 79.4243 155.195C80.8677 155.994 79.9048 153.48 79.9048 153.48Z" fill="#E74A60"/>
<path d="M82.3371 130.086C81.0094 128.437 70.2954 126.87 70.2954 126.87L67.308 121.521L60.7019 125.316C60.7019 125.316 61.3622 130.213 61.858 131.522C62.5185 133.265 66.958 133.354 69.6699 133.328C72.1648 133.304 76.7219 133.778 76.7219 133.778L75.1805 146.445C75.1805 146.445 78.2102 147.088 79.0617 146.984C79.1576 146.972 83.9885 132.137 82.3371 130.086Z" fill="#FFCB83"/>
<path d="M64.4681 108.546L60.7413 108.74C60.7413 108.74 60.6557 108.764 60.6296 108.769C60.3259 108.821 60.6017 118.94 60.8726 122.719C61.1433 126.498 61.6926 128.085 61.6926 128.085C61.6926 128.085 66.7476 127.249 68.2988 126.688C68.9426 126.456 70.5007 124.641 70.5007 124.641C70.5007 124.641 68.909 122.647 68.1069 119.409C67.4884 116.911 66.7257 112.483 66.2893 111.559C65.287 109.436 64.4681 108.546 64.4681 108.546Z" fill="#EEFBFF"/>
<path d="M60.8473 105.674L60.7415 108.739C60.7415 108.739 63.154 112.612 64.3928 112.073C65.4323 111.62 64.5097 108.674 64.5097 108.674C64.5097 108.674 64.3296 107.998 64.0802 107.222C63.9057 106.68 63.7607 106.093 63.7713 105.662C63.7973 104.614 60.8473 105.674 60.8473 105.674Z" fill="#F7A491"/>
<path d="M63.7297 98.6821C63.7297 98.6821 64.9593 100.409 65.0509 101.862C65.1426 103.315 64.8122 104.306 64.8122 104.306L60.8669 99.9127L63.7297 98.6821Z" fill="#031322"/>
<path d="M65.4596 101.564C65.5151 102.073 65.3029 102.51 64.9853 102.54C64.668 102.571 64.3656 102.183 64.3099 101.674C64.2543 101.165 64.4665 100.728 64.7841 100.698C65.1014 100.668 65.4038 101.056 65.4596 101.564Z" fill="#F48C7F"/>
<path d="M59.5904 100.617C59.4998 100.599 59.5087 104.828 60.8247 105.824C62.1406 106.819 64.4311 106.906 65.1 105.904C65.8397 104.795 65.1362 100.338 63.1787 99.3917C61.2214 98.4452 59.5904 100.617 59.5904 100.617Z" fill="#F7A491"/>
<path d="M59.2566 97.9945C58.252 98.8151 57.7656 99.4145 57.0859 100.873C56.2501 102.667 57.9083 104.526 59.2988 105.264C60.6892 106.003 60.8048 106.896 60.8048 106.896L60.8623 106.345C60.8898 106.144 60.8818 105.981 60.8444 105.839C60.8003 105.673 60.7185 105.535 60.6466 105.392C60.5282 105.157 60.1482 104.349 59.9998 104.136C59.6087 103.574 59.5315 103.452 59.7246 102.918C59.8733 102.506 59.7011 101.6 59.9311 100.922L61.8027 100.546C61.8027 100.546 62.974 100.283 63.5656 99.6479C65.2638 97.8226 61.9061 95.7872 59.2566 97.9945Z" fill="#031322"/>
<path d="M60.1697 103.38C60.4002 103.844 60.3523 104.322 60.0628 104.447C59.7731 104.572 59.3515 104.297 59.121 103.832C58.8905 103.368 58.9383 102.891 59.2278 102.766C59.5175 102.641 59.9392 102.916 60.1697 103.38Z" fill="#F7A491"/>
<path d="M47.4157 91.7125C47.6284 92.5268 48.0119 93.8134 48.0119 93.8134C47.9816 94.1671 47.8695 95.6394 47.736 97.4436L50.5829 96.3823C50.5829 96.3823 50.5488 93.4423 50.6759 93.2625C50.7833 93.1103 50.9636 93.3001 51.8362 92.1369C52.0881 91.8011 52.1353 91.2012 52.1353 91.2012C52.1353 91.2012 52.1873 90.4626 52.0092 90.3938C51.8313 90.3249 51.6271 90.4353 51.5627 90.5628C51.4981 90.6906 51.5148 90.9877 51.4502 91.1152C51.3856 91.2428 50.9739 91.3966 50.8005 91.3888C50.6271 91.3808 50.8223 89.2044 50.8223 89.2044C50.8223 89.2044 50.9191 88.5873 50.9682 88.3852C51.0101 88.213 51.1783 87.7081 51.1783 87.7081C51.1783 87.7081 51.3759 86.9757 51.1316 86.9197C50.9877 86.8868 50.621 87.482 50.3696 88.1134C50.0989 88.7936 49.9454 89.515 49.8681 89.5052C49.6863 89.4824 49.7826 88.2892 49.7826 88.2892C49.7826 88.2892 49.9638 87.7427 49.9593 87.4846C50.1303 87.1687 50.2438 86.5824 49.9428 86.5338C49.8872 86.5249 49.4901 87.2698 49.4901 87.2698C49.4901 87.2698 49.3341 87.7941 49.2431 88.0391C49.0828 88.4713 49.0586 89.1539 48.9748 89.4549C48.9052 89.7054 48.8422 89.6024 48.8136 89.6129C48.7915 89.6212 48.8303 89.2757 48.8747 88.801C48.897 88.5618 48.8676 88.2861 48.9395 88.0138C49.0058 87.7616 49.0441 87.4006 49.0613 87.1826C49.1101 86.5654 48.693 86.6286 48.5488 87.1929C48.494 87.4079 48.4362 87.6424 48.3786 87.8803C48.1545 88.8054 48.1609 89.6968 48.0537 89.7042C47.9148 89.714 48.0062 88.091 48.0062 88.091C48.0062 88.091 47.7929 87.1927 47.5809 88.0265C47.3351 88.9941 47.3607 89.7827 47.364 89.8176C47.3862 90.0541 47.2031 90.8983 47.4157 91.7125Z" fill="#F8A492"/>
<path d="M60.7413 108.739C60.7413 108.739 57.046 108.579 56.0927 108.177C55.5147 107.934 50.7667 104.37 50.7667 104.37L50.82 94.8269L47.4808 94.5901C47.4808 94.5901 45.7494 105.138 46.3492 106.293C46.9684 107.485 53.9183 112.393 55.3084 114.523C56.1092 115.751 57.7789 132.439 58.0317 132.589C59.8301 133.461 65.3834 134.332 65.2527 133.803C61.6375 119.187 60.7413 108.739 60.7413 108.739Z" fill="#4054E7"/>
<path d="M77.2359 104.594C83.3691 104.594 88.3411 99.9624 88.3411 94.2488C88.3411 88.5351 83.3691 83.9033 77.2359 83.9033C71.1026 83.9033 66.1306 88.5351 66.1306 94.2488C66.1306 99.9624 71.1026 104.594 77.2359 104.594Z" fill="#FFCB83"/>
<path d="M77.2357 102.93C82.3823 102.93 86.5545 99.0435 86.5545 94.2491C86.5545 89.4546 82.3823 85.5679 77.2357 85.5679C72.0891 85.5679 67.917 89.4546 67.917 94.2491C67.917 99.0435 72.0891 102.93 77.2357 102.93Z" fill="#E6A748"/>
<path d="M74.3504 99.8234L74.8807 98.461C74.2306 98.2103 73.6276 97.8753 73.1565 97.5322C72.7632 97.2456 72.6765 96.7242 72.9579 96.3398L72.9918 96.2936C73.3019 95.8705 73.9343 95.7792 74.363 96.1003C74.7996 96.4278 75.326 96.7291 75.9286 96.9324C76.8061 97.2289 77.5293 97.1162 77.7525 96.5425C77.9645 95.9976 77.6059 95.4869 76.6063 94.7435C75.1599 93.6708 74.3153 92.5742 74.8567 91.183C75.3478 89.9209 76.6876 89.2537 78.452 89.509L78.9823 88.1465L80.4911 88.6562L79.9998 89.9183C80.5507 90.1308 80.9835 90.3559 81.3313 90.5816C81.7561 90.8573 81.8602 91.4021 81.5682 91.8004C81.2664 92.2123 80.6579 92.3103 80.2267 92.0145C79.9034 91.793 79.4871 91.5627 78.9436 91.3791C77.943 91.0409 77.4635 91.3333 77.3072 91.7349C77.123 92.2081 77.5445 92.6913 78.6745 93.5923C80.2721 94.8134 80.704 95.8518 80.2016 97.1426C79.7048 98.419 78.3108 99.1814 76.4287 98.8702L75.8593 100.333L74.3504 99.8234Z" fill="#EEFBFF"/>
<path d="M76.9509 104.649C76.9509 104.649 77.9784 104.238 78.2538 104.153C78.5291 104.067 79.4098 103.913 79.4098 103.913C79.4098 103.913 80.7769 102.606 81.1256 102.572C81.4742 102.537 80.3273 103.999 80.3273 103.999L79.8502 104.426C79.8502 104.426 80.6209 103.811 80.7677 103.726C80.9145 103.64 82.0706 102.084 82.3643 102.187C82.6578 102.29 81.8687 103.384 81.4834 103.965C81.098 104.546 79.3363 104.905 79.3363 104.905L76.9509 104.649Z" fill="#F7A491"/>
<path d="M52.8723 218.526H24.8661C23.7423 218.526 22.8313 217.677 22.8313 216.63C22.8313 215.584 23.7423 214.735 24.8661 214.735H52.8723C53.996 214.735 54.907 215.583 54.907 216.63C54.9069 217.677 53.996 218.526 52.8723 218.526Z" fill="#E6A748"/>
<path d="M52.3029 214.735H24.2966C23.1728 214.735 22.262 213.886 22.262 212.839C22.262 211.793 23.1728 210.944 24.2966 210.944H52.3029C53.4267 210.944 54.3375 211.792 54.3375 212.839C54.3375 213.886 53.4267 214.735 52.3029 214.735Z" fill="#FFCB83"/>
<path d="M55.5894 210.944H27.5834C26.4596 210.944 25.5486 210.095 25.5486 209.048C25.5486 208.002 26.4594 207.153 27.5834 207.153H55.5895C56.7133 207.153 57.6243 208.002 57.6243 209.048C57.6241 210.095 56.7131 210.944 55.5894 210.944Z" fill="#E6A748"/>
<path d="M52.1972 207.152H24.191C23.0673 207.152 22.1562 206.304 22.1562 205.257C22.1562 204.21 23.0671 203.361 24.191 203.361H52.1972C53.321 203.361 54.232 204.21 54.232 205.257C54.232 206.304 53.321 207.152 52.1972 207.152Z" fill="#E6A748"/>
<path d="M51.628 203.361H23.6217C22.4979 203.361 21.5869 202.513 21.5869 201.466C21.5869 200.419 22.4978 199.57 23.6217 199.57H51.6279C52.7516 199.57 53.6625 200.419 53.6625 201.466C53.6625 202.513 52.7516 203.361 51.628 203.361Z" fill="#FFCB83"/>
<path d="M54.914 199.57H26.9078C25.7841 199.57 24.873 198.722 24.873 197.675C24.873 196.628 25.7841 195.779 26.9078 195.779H54.914C56.0378 195.779 56.9488 196.628 56.9488 197.675C56.9486 198.722 56.0378 199.57 54.914 199.57Z" fill="#E6A748"/>
<path d="M68.5425 172.606H43.1788C42.0719 172.606 41.1743 171.769 41.1743 170.738C41.1743 169.707 42.0718 168.871 43.1788 168.871H68.5425C69.6495 168.871 70.5469 169.707 70.5469 170.738C70.5468 171.769 69.6495 172.606 68.5425 172.606Z" fill="#064C91"/>
<path d="M67.0415 158.592C69.0364 163.995 65.9523 169.881 60.1526 171.74C54.3529 173.598 48.0339 170.725 46.039 165.322C44.0441 159.919 47.1283 154.033 52.928 152.174C58.7277 150.316 65.0465 153.189 67.0415 158.592Z" fill="#FFCB83"/>
<path d="M65.3519 159.134C67.0259 163.667 64.4377 168.607 59.571 170.167C54.7043 171.726 49.4019 169.315 47.7278 164.781C46.0537 160.248 48.6419 155.308 53.5087 153.748C58.3754 152.189 63.6778 154.6 65.3519 159.134Z" fill="#E6A748"/>
<path d="M55.758 168.102L55.7837 166.653C55.0815 166.613 54.3943 166.479 53.829 166.297C53.3573 166.146 53.093 165.679 53.2251 165.23L53.2411 165.176C53.3865 164.682 53.9527 164.404 54.4701 164.578C54.9972 164.755 55.6003 164.881 56.2411 164.89C57.1742 164.905 57.8189 164.579 57.8298 163.969C57.8401 163.39 57.3225 163.015 56.1176 162.615C54.3755 162.039 53.1938 161.258 53.2199 159.778C53.2438 158.436 54.2775 157.399 56.0351 157.106L56.0609 155.657L57.6655 155.681L57.6416 157.024C58.2367 157.058 58.7245 157.139 59.132 157.247C59.6299 157.379 59.9186 157.863 59.7816 158.328C59.64 158.809 59.0986 159.086 58.5878 158.937C58.2048 158.825 57.7308 158.734 57.1528 158.725C56.0886 158.708 55.7373 159.13 55.7296 159.557C55.7207 160.061 56.2879 160.39 57.6712 160.899C59.6083 161.57 60.3792 162.421 60.3548 163.794C60.3308 165.151 59.2786 166.295 57.3903 166.571L57.3627 168.127L55.758 168.102Z" fill="#EEFBFF"/>
<path d="M71.4377 184.273H41.6424C40.0586 184.273 38.7749 183.077 38.7749 181.602C38.7749 180.126 40.0588 178.93 41.6424 178.93H71.4375C73.0212 178.93 74.3049 180.126 74.3049 181.602C74.3049 183.077 73.0212 184.273 71.4377 184.273Z" fill="#064C91"/>
<path d="M61.0293 181.602C61.0293 180.126 59.7454 178.93 58.1618 178.93H41.6424C40.0586 178.93 38.7749 180.126 38.7749 181.602C38.7749 183.077 40.0588 184.273 41.6424 184.273H58.162C59.7455 184.273 61.0293 183.077 61.0293 181.602Z" fill="#FF6E53"/>
<path d="M131.891 172.306H114.992C109.505 172.306 105.057 168.162 105.057 163.051V151.444C105.057 146.333 109.505 142.189 114.992 142.189H131.891C137.377 142.189 141.825 146.333 141.825 151.444V163.051C141.825 168.162 137.377 172.306 131.891 172.306Z" fill="#063E70"/>
<path d="M137.786 151.286H134.109V138.918C134.109 133.433 129.319 128.97 123.43 128.97C117.542 128.97 112.751 133.433 112.751 138.918V148.867H109.075V138.918C109.075 131.544 115.515 125.545 123.43 125.545C131.346 125.545 137.786 131.544 137.786 138.918V151.286Z" fill="#063E70"/>
<path d="M127.929 155.338C127.929 157.262 126.255 158.822 124.189 158.822C122.124 158.822 120.449 157.262 120.449 155.338C120.449 153.413 122.124 151.854 124.189 151.854C126.255 151.853 127.929 153.413 127.929 155.338Z" fill="#064C91"/>
<path d="M124.189 153.707L121.038 165.938H127.34L124.189 153.707Z" fill="#064C91"/>
<path d="M166.685 133.987C166.192 135.263 165.977 135.138 165.919 135.303C165.85 135.498 166.653 138.146 166.653 138.146C166.653 138.146 168.964 145.966 169.105 146.384L174.935 152.877L172.215 156.41C172.215 156.41 166.08 149.194 165.831 148.766C165.583 148.338 163.815 137.441 163.625 136.486C163.625 136.486 162.936 135.422 162.527 134.741C162.118 134.059 162.065 133.249 161.982 133.041C161.97 133.011 161.739 132.304 161.71 131.367C161.685 130.559 162.116 131.316 162.116 131.316C162.116 131.316 162.459 132.806 162.583 132.762C162.679 132.727 162.44 131.923 162.402 131.029C162.392 130.8 162.945 130.761 162.95 131.006C162.956 131.27 163.055 131.512 163.098 131.734C163.182 132.174 163.237 132.496 163.255 132.483C163.279 132.467 163.363 132.543 163.361 132.299C163.359 132.006 163.202 131.382 163.235 130.95C163.254 130.706 163.259 130.191 163.259 130.191C163.259 130.191 163.818 129.935 163.745 130.265C163.817 130.497 163.794 131.038 163.794 131.038C163.794 131.038 164.02 132.141 164.192 132.115C164.265 132.104 164.217 131.412 164.286 130.728C164.35 130.092 164.92 130.153 164.92 130.153C164.92 130.153 164.898 130.653 164.905 130.819C164.913 131.014 164.987 131.597 164.987 131.597C164.987 131.597 165.284 133.392 165.444 133.355C165.605 133.318 165.977 133.133 166.003 133.001C166.028 132.869 165.759 132.215 165.784 132.083C165.81 131.951 166.027 131.927 166.209 131.944C166.39 131.96 166.713 133.064 166.713 133.064C166.713 133.064 166.828 133.619 166.685 133.987Z" fill="#F8A492"/>
<path d="M165.425 133.362C165.425 133.362 165.021 133.389 164.642 133.676C164.263 133.964 164.199 134.84 164.199 134.84C164.199 134.84 164.01 134.103 164.13 133.7C164.25 133.298 165 133.191 165.425 133.362Z" fill="#F47458"/>
<path d="M194.059 129.005C194.059 129.005 194.381 128.984 194.409 129.005C194.507 129.078 194.856 129.311 194.856 129.641C194.856 130.065 194.986 130.028 194.986 130.028L195.265 131.972L195.016 132.611C195.016 132.611 194.509 131.958 194.332 131.466C193.993 130.529 193.776 129.13 194.059 129.005Z" fill="#F7A491"/>
<path d="M203.696 126.598L156.948 130.539L156.533 125.527L153.747 125.727L154.161 130.739L150.586 130.996L150.135 125.549L146.546 125.807L146.997 131.254L139.999 131.756L140.296 135.349L148.09 134.789L148.719 142.376L158.537 141.671L157.909 134.084L204.011 130.061L203.696 126.598Z" fill="#FFCB83"/>
<path d="M209.438 116.267C204.532 116.267 200.555 121.492 200.555 127.937C200.555 134.382 204.532 139.606 209.438 139.606C214.344 139.606 218.321 134.382 218.321 127.937C218.321 121.492 214.344 116.267 209.438 116.267ZM209.438 134.932C206.497 134.932 204.113 131.8 204.113 127.937C204.113 124.074 206.497 120.942 209.438 120.942C212.379 120.942 214.762 124.074 214.762 127.937C214.762 131.8 212.379 134.932 209.438 134.932Z" fill="#FFCB83"/>
<path d="M197.384 128.428C197.384 128.428 197.088 127.17 196.974 126.817C196.86 126.464 196.231 125.722 196.132 125.828C196.034 125.934 196.064 126.244 196.17 126.414C196.276 126.584 196.602 127.523 196.602 127.523L196.678 128.838C196.678 128.838 196.525 127.807 196.4 127.482C196.289 127.195 195.788 126.438 195.765 126.417C195.748 126.401 195.387 126.073 195.201 125.905C195.115 125.827 194.968 125.86 194.935 125.968C194.926 126 194.922 126.038 194.926 126.082C194.949 126.301 195.146 126.556 195.283 126.718C195.419 126.881 195.71 127.422 195.791 127.693C195.877 127.983 195.965 128.909 195.897 128.909C195.829 128.909 195.726 128.095 195.614 127.84C195.515 127.611 195.176 127.23 194.995 127.04C194.813 126.849 194.282 126.421 194.054 126.421C193.827 126.421 194.403 127.135 194.449 127.199C194.494 127.262 194.972 127.94 194.972 127.94C194.972 127.94 195.222 128.958 195.086 128.958C194.949 128.958 193.749 126.96 193.675 127.304C193.606 127.622 194.351 128.816 194.426 129.043C194.48 129.206 194.72 130.97 194.858 132.137C194.901 132.502 195.157 132.773 195.109 132.964C194.904 133.77 192.15 144.472 192.15 144.472C192.15 144.472 189.852 147.59 189.193 148.396C188.533 149.201 186.963 151.406 186.963 151.406L190.831 153.554L196.352 145.131C196.352 145.131 197.521 131.792 197.543 131.785L197.384 128.428Z" fill="#F7A491"/>
<path d="M158.602 200.544C158.248 202.521 158.262 204.472 158.249 204.693C158.239 204.865 158.324 205.647 158.335 205.757C156.455 206.652 155.314 206.733 153.319 207.159C153.818 206.314 154.804 206.376 154.936 206.02C155.095 205.591 154.998 203.915 154.629 201.177C156.015 201.489 157.235 200.871 158.602 200.544Z" fill="#F7A491"/>
<path d="M174.628 206.331C175.27 208.251 176.111 209.667 176.234 209.861C176.292 209.953 176.792 210.267 176.855 210.362C175.603 211.909 175.217 214.365 173.633 215.537C173.67 214.579 174.229 212.747 174.174 212.375C174.108 211.925 173.206 210.454 171.546 208.135C172.941 207.868 173.558 207.164 174.628 206.331Z" fill="#F7A491"/>
<path d="M175.872 210.561C176.024 210.126 176.619 209.791 177.082 210.01C177.549 210.231 178.164 210.465 178.63 210.708C179.153 210.981 179.218 211.324 179.213 211.403C179.196 211.632 174.647 218.251 172.829 218.597C172.085 218.738 173.31 213.171 174.089 212.581C174.781 212.055 175.192 212.519 175.872 210.561Z" fill="#063E70"/>
<path d="M157.834 205.303C158.288 205.098 158.972 205.249 159.121 205.7C159.271 206.153 159.514 206.712 159.645 207.18C159.793 207.706 159.564 207.986 159.497 208.038C159.303 208.186 149.978 209.3 149.345 208.919C148.712 208.538 153.956 205.465 154.972 205.556C155.876 205.637 155.793 206.224 157.834 205.303Z" fill="#063E70"/>
<path d="M174.034 174.122L183.64 176.905L171.606 185.386L159.92 187.356C159.92 187.356 159.023 197.437 158.95 201.447C157.747 201.907 155.524 202.491 154.276 202.352C153.406 196.784 152.51 185.282 153.576 183.52C154.497 181.997 174.034 174.122 174.034 174.122Z" fill="#063E70"/>
<path d="M176.491 175.454C176.99 174.576 177.077 172.803 177.077 172.803L183.224 176.78L185.052 177.774C185.052 177.774 185.426 181.965 183.079 184.473C180.732 186.982 169.675 193.781 169.675 193.781C169.675 193.781 173.595 203.204 175.42 206.734C174.494 207.694 172.925 208.884 171.586 209.324C169.913 206.784 160.869 195.18 161.291 192.606C161.603 190.704 175.993 176.332 176.491 175.454Z" fill="#064C91"/>
<path d="M187.509 149.818C187.509 149.818 183.961 153.105 181.946 153.878C181.505 154.047 180.365 154.368 179.999 154.387C177.964 154.493 172.718 149.853 172.718 149.853C172.718 149.853 169.875 153.428 169.898 153.949C169.919 154.393 173.157 157.415 173.359 158.533C173.989 162.023 172.959 174.281 172.959 174.281C175.754 176.308 185.257 178.03 185.257 178.03C185.257 178.03 187.31 159.141 187.48 159.005C188.182 158.442 191.533 153.762 191.663 153.221C191.896 152.247 187.509 149.818 187.509 149.818Z" fill="#FFCB83"/>
<path d="M179.394 152.785L178.92 154.588C178.92 154.588 178.811 156.158 179.594 156.299C180.537 156.469 181.939 155.154 181.939 155.154L182.751 150.069L179.394 152.785Z" fill="#F7A491"/>
<path d="M182.742 150.092L179.394 152.784L179.04 154.131C180.319 153.844 182.144 152.532 182.742 150.092Z" fill="#F47458"/>
<path d="M179.383 145.413C178.573 145.411 177.844 145.934 177.559 146.687C177.323 147.311 177.021 148.236 176.829 149.297C176.475 151.253 177.67 153.043 178.71 153.186C179.75 153.329 182.228 152.687 182.776 149.917C183.011 148.73 183.32 147.172 182.271 146.354C181.456 145.717 180.314 145.416 179.383 145.413Z" fill="#F7A491"/>
<path d="M182.438 152.028C182.438 152.028 186.104 148.984 186.264 146.606C186.424 144.228 184.067 142.954 182.051 142.888C181.14 142.858 180.524 142.896 179.583 143.006C177.564 143.243 176.255 144.077 176.715 145.619C177.334 147.689 181.526 145.943 182.383 146.585C183.09 147.115 181.944 148.39 182.631 148.877C183.277 149.334 182.948 149.179 182.734 150.048C182.52 150.918 182.438 152.028 182.438 152.028Z" fill="#E74A60"/>
<path d="M183.851 149.27C183.76 149.84 183.386 150.26 183.016 150.21C182.646 150.159 182.419 149.656 182.51 149.086C182.601 148.516 182.974 148.095 183.345 148.146C183.716 148.197 183.942 148.7 183.851 149.27Z" fill="#F7A491"/>
<path d="M165.983 131.863C165.983 131.863 166.756 132.795 166.756 133.448C166.756 134.1 166.359 134.721 166.359 134.721L164.758 133.591C164.758 133.591 165.386 133.269 165.578 133.09C165.77 132.912 165.306 132.267 165.425 132.003C165.544 131.739 165.787 131.605 165.983 131.863Z" fill="#F8A492"/>
<path d="M136.484 202.097C140.118 206.92 138.866 213.575 133.688 216.96C128.511 220.345 121.368 219.179 117.734 214.356C114.1 209.533 115.352 202.878 120.529 199.493C125.707 196.108 132.85 197.274 136.484 202.097Z" fill="#FFCB83"/>
<path d="M134.976 203.083C138.025 207.131 136.975 212.715 132.63 215.555C128.285 218.396 122.291 217.417 119.242 213.37C116.193 209.322 117.243 203.738 121.588 200.898C125.932 198.057 131.927 199.036 134.976 203.083Z" fill="#E6A748"/>
<path d="M128.218 214.525L127.8 213.082C127.091 213.229 126.369 213.279 125.753 213.249C125.239 213.225 124.834 212.832 124.827 212.353L124.827 212.295C124.819 211.766 125.295 211.34 125.861 211.375C126.438 211.41 127.074 211.374 127.712 211.213C128.641 210.979 129.18 210.485 129.004 209.877C128.836 209.3 128.209 209.067 126.892 208.991C124.989 208.884 123.578 208.425 123.15 206.951C122.762 205.615 123.469 204.312 125.121 203.554L124.702 202.111L126.3 201.708L126.688 203.045C127.288 202.92 127.797 202.872 128.234 202.87C128.767 202.868 129.202 203.271 129.209 203.768C129.216 204.283 128.764 204.701 128.212 204.69C127.799 204.681 127.301 204.716 126.725 204.861C125.665 205.128 125.447 205.64 125.57 206.065C125.715 206.566 126.379 206.741 127.906 206.878C130.031 207.028 131.056 207.666 131.453 209.032C131.845 210.384 131.153 211.797 129.366 212.573L129.816 214.123L128.218 214.525Z" fill="#EEFBFF"/>
</svg>
