<svg width="302" height="229" viewBox="0 0 302 229" fill="none" xmlns="http://www.w3.org/2000/svg">
<path d="M267.936 227.726C280.39 227.726 299.996 210.308 286.308 186.79C269.469 157.859 250.706 165.548 272.69 113.517C284.39 85.826 243.216 61.1469 209.529 77.3227C190.508 86.4562 157.436 93.5493 146.586 75.7437C123.07 37.1509 40.3838 34.4897 20.2394 74.4108C-1.33337 117.162 51.7928 132.934 33.7797 155.131C23.4864 167.814 10.4916 172.923 11.4925 191.089C13.1258 220.711 53.0759 227.536 82.1756 227.536L267.936 227.726Z" fill="#C9EDF9"/>
<path d="M24.9336 227.101C22.6275 227.003 20.9843 225.198 21.2829 223.307C21.9384 219.148 22.5127 210.025 16.2048 205.093C9.52031 199.866 9.76314 196.422 11.6246 194.757C14.5099 192.178 27.7336 197.889 29.2562 215.477C30.093 225.152 27.467 227.209 24.9336 227.101Z" fill="#A0B762"/>
<path d="M23.0452 221.245C22.9927 221.614 22.932 221.985 22.8623 222.361C22.8541 222.407 22.8016 222.439 22.7458 222.431C22.69 222.424 22.658 222.382 22.6605 222.335C24.0789 214.71 21.8105 208.44 19.6579 204.523C17.3263 200.28 14.6273 197.811 14.6002 197.787C14.5617 197.752 14.5649 197.699 14.6068 197.668C14.6486 197.636 14.7134 197.638 14.7512 197.673C14.7782 197.697 17.4986 200.186 19.8441 204.453C21.9016 208.198 24.0649 214.083 23.0452 221.245Z" fill="#A0B762"/>
<path d="M26.3997 227.667C29.6353 227.895 32.3425 225.641 32.3655 222.959C32.4155 217.06 33.7306 204.259 43.6621 198.385C54.186 192.16 54.647 187.323 52.4385 184.709C49.0167 180.659 29.2685 186.524 23.0714 210.79C19.6635 224.135 22.8458 227.416 26.3997 227.667Z" fill="#A0B762"/>
<path d="M30.3883 219.806C30.376 220.328 30.3743 220.855 30.385 221.389C30.3866 221.455 30.4515 221.507 30.531 221.507C30.6106 221.505 30.6656 221.451 30.6721 221.386C30.4638 210.538 35.0776 202.161 38.9842 197.044C43.2166 191.502 47.549 188.49 47.5925 188.46C47.654 188.418 47.6614 188.343 47.6113 188.292C47.5605 188.242 47.4702 188.235 47.4095 188.277C47.3661 188.307 42.9984 191.343 38.7422 196.917C35.0062 201.809 30.6278 209.667 30.3883 219.806Z" fill="#E1ECFA"/>
<path d="M148.831 226.884C149.833 225.457 149.026 223.622 147.226 222.908C143.268 221.337 134.995 217.375 133.646 211.272C132.216 204.806 129.081 203.325 126.742 203.653C123.118 204.163 121.885 214.773 136.596 223.985C144.686 229.052 147.73 228.451 148.831 226.884Z" fill="#A0B762"/>
<path d="M144.585 222.989C144.934 223.132 145.288 223.27 145.651 223.406C145.695 223.423 145.748 223.406 145.768 223.369C145.788 223.333 145.767 223.293 145.724 223.273C138.366 220.523 133.937 216.206 131.517 213.069C128.896 209.671 128.005 206.891 127.996 206.863C127.984 206.824 127.936 206.801 127.889 206.811C127.841 206.821 127.813 206.861 127.826 206.9C127.835 206.928 128.733 209.731 131.369 213.148C133.681 216.147 137.822 220.219 144.585 222.989Z" fill="#A0B762"/>
<path d="M150.974 227.58C153.091 226.789 153.828 224.599 152.708 222.918C150.243 219.221 145.649 210.848 149.365 204.314C153.303 197.388 151.544 194.235 149.06 193.241C145.21 191.7 135.36 201.063 141.757 218.003C145.274 227.32 148.649 228.45 150.974 227.58Z" fill="#A0B762"/>
<path d="M150.138 221.521C150.352 221.851 150.574 222.18 150.806 222.511C150.835 222.551 150.898 222.565 150.946 222.542C150.996 222.518 151.007 222.469 150.984 222.426C146.264 215.712 145.601 209.15 145.876 204.828C146.173 200.145 147.604 197.014 147.618 196.982C147.639 196.938 147.611 196.89 147.559 196.873C147.506 196.856 147.447 196.878 147.426 196.921C147.411 196.953 145.969 200.109 145.67 204.818C145.408 208.951 145.999 215.12 150.138 221.521Z" fill="#A0B762"/>
<path d="M263.472 226.304C262.13 224.394 263.211 221.936 265.622 220.98C270.922 218.877 282.001 213.571 283.808 205.397C285.723 196.736 289.921 194.753 293.054 195.194C297.907 195.876 299.558 210.085 279.858 222.422C269.023 229.208 264.947 228.403 263.472 226.304Z" fill="#A0B762"/>
<path d="M269.158 221.089C268.692 221.28 268.217 221.466 267.732 221.647C267.672 221.67 267.602 221.647 267.575 221.599C267.548 221.549 267.578 221.496 267.634 221.469C277.488 217.786 283.42 212.005 286.66 207.804C290.17 203.254 291.364 199.53 291.375 199.493C291.392 199.44 291.456 199.409 291.52 199.422C291.583 199.436 291.621 199.489 291.605 199.541C291.593 199.579 290.39 203.332 286.86 207.909C283.762 211.926 278.216 217.379 269.158 221.089Z" fill="#A0B762"/>
<path d="M147.583 226.168C146.241 224.258 147.322 221.8 149.733 220.844C155.033 218.74 166.112 213.434 167.919 205.261C169.834 196.6 174.032 194.617 177.165 195.057C182.018 195.74 183.668 209.949 163.969 222.286C153.134 229.072 149.058 228.267 147.583 226.168Z" fill="#A0B762"/>
<path d="M153.269 220.952C152.802 221.144 152.328 221.329 151.843 221.511C151.783 221.533 151.713 221.511 151.686 221.462C151.659 221.413 151.688 221.36 151.745 221.333C161.599 217.65 167.531 211.868 170.77 207.668C174.281 203.117 175.475 199.393 175.486 199.356C175.502 199.304 175.567 199.272 175.63 199.286C175.694 199.299 175.732 199.353 175.716 199.405C175.704 199.442 174.501 203.196 170.971 207.773C167.873 211.79 162.327 217.243 153.269 220.952Z" fill="#A0B762"/>
<path d="M260.603 227.238C257.768 226.178 256.781 223.245 258.282 220.994C261.581 216.043 267.735 204.83 262.759 196.079C257.485 186.805 259.84 182.582 263.168 181.251C268.324 179.187 281.514 191.726 272.948 214.412C268.236 226.889 263.717 228.402 260.603 227.238Z" fill="#A0B762"/>
<path d="M261.722 219.123C261.436 219.564 261.138 220.006 260.827 220.448C260.789 220.502 260.704 220.521 260.639 220.489C260.573 220.458 260.558 220.391 260.589 220.334C266.909 211.344 267.797 202.555 267.43 196.767C267.031 190.495 265.115 186.302 265.096 186.26C265.069 186.201 265.104 186.135 265.175 186.113C265.246 186.091 265.326 186.12 265.353 186.178C265.372 186.22 267.304 190.447 267.705 196.754C268.057 202.289 267.266 210.552 261.722 219.123Z" fill="#A0B762"/>
<path d="M262.893 226.552C264.146 225.454 263.891 223.681 262.468 222.735C259.34 220.654 252.974 215.7 253.314 210.032C253.675 204.027 251.257 202.168 249.091 202.058C245.735 201.887 241.958 211.123 252.73 221.862C258.654 227.768 261.517 227.757 262.893 226.552Z" fill="#A0B762"/>
<path d="M260.096 222.352C260.37 222.539 260.65 222.724 260.939 222.907C260.974 222.929 261.025 222.924 261.052 222.895C261.079 222.866 261.07 222.826 261.038 222.801C255.18 219.084 252.326 214.476 250.963 211.266C249.487 207.788 249.396 205.158 249.396 205.132C249.395 205.095 249.357 205.066 249.313 205.067C249.268 205.068 249.232 205.099 249.234 205.136C249.235 205.162 249.327 207.813 250.811 211.311C252.113 214.38 254.772 218.72 260.096 222.352Z" fill="#A0B762"/>
<path d="M257.697 48.8471C256.508 48.8471 255.374 49.0348 254.324 49.3621C254.333 49.1914 254.34 49.0199 254.34 48.8471C254.34 42.1064 247.724 36.6417 239.564 36.6417C231.805 36.6417 225.448 41.5826 224.84 47.8618C223.076 46.4597 220.682 45.5936 218.04 45.5936C214.154 45.5936 210.805 47.4626 209.214 50.1679C207.254 46.6793 202.987 44.2539 198.025 44.2539C191.209 44.2539 185.683 48.818 185.683 54.4487C185.683 60.0787 191.208 64.6434 198.025 64.6434H257.697C262.977 64.6434 267.258 61.1074 267.258 56.7453C267.258 52.3832 262.977 48.8471 257.697 48.8471Z" fill="#65CEFE"/>
<path d="M123.081 12.2054C124.27 12.2054 125.404 12.3931 126.454 12.7204C126.446 12.5496 126.438 12.3782 126.438 12.2054C126.438 5.46467 133.054 0 141.214 0C148.973 0 155.33 4.94084 155.938 11.2201C157.702 9.81798 160.096 8.95192 162.738 8.95192C166.624 8.95192 169.973 10.8209 171.564 13.5261C173.524 10.0375 177.791 7.61219 182.753 7.61219C189.57 7.61219 195.095 12.1762 195.095 17.8069C195.095 23.437 189.57 28.0017 182.753 28.0017H123.081C117.801 28.0017 113.52 24.4657 113.52 20.1035C113.52 15.7421 117.801 12.2054 123.081 12.2054Z" fill="#65CEFE"/>
<path d="M171.067 163.281C209.907 155.553 233.808 123.279 224.451 91.1956C215.095 59.1124 176.024 39.3692 137.184 47.0979C98.344 54.8267 74.4428 87.1006 83.7992 119.184C93.1557 151.267 132.227 171.01 171.067 163.281Z" fill="#5FAAF9"/>
<path d="M173.241 157.667C208.33 148.939 228.21 118.368 217.645 89.3842C207.08 60.4 170.07 43.9783 134.982 52.7053C99.8935 61.4324 80.0134 92.0034 90.5784 120.988C101.143 149.972 138.153 166.394 173.241 157.667Z" fill="#5FAAF9" stroke="white" stroke-width="1.5" stroke-miterlimit="10" stroke-linecap="round"/>
<path d="M156.385 160.907C170.85 160.907 182.577 136.173 182.577 105.662C182.577 75.1511 170.85 50.417 156.385 50.417C141.919 50.417 130.192 75.1511 130.192 105.662C130.192 136.173 141.919 160.907 156.385 160.907Z" fill="#5FAAF9" stroke="white" stroke-width="1.5" stroke-miterlimit="10" stroke-linecap="round"/>
<path d="M220.471 105.195H87.7649" stroke="white" stroke-width="1.5" stroke-miterlimit="10" stroke-linecap="round"/>
<path d="M154.786 132.157C174.304 132.157 191.851 135.695 203.992 141.325C191.831 152.77 174.003 160.005 154.118 160.005C134.481 160.005 116.843 152.953 104.694 141.754C116.86 135.878 134.782 132.157 154.786 132.157Z" fill="#5FAAF9" stroke="white" stroke-width="1.5" stroke-miterlimit="10" stroke-linecap="round"/>
<path d="M205.005 70.0314C192.838 75.9426 174.86 79.6894 154.786 79.6894C134.226 79.6894 115.852 75.7637 103.681 69.6017C115.851 57.8456 133.924 50.3853 154.118 50.3853C174.559 50.3859 192.834 58.0259 205.005 70.0314Z" fill="#5FAAF9" stroke="white" stroke-width="1.5" stroke-miterlimit="10" stroke-linecap="round"/>
<path d="M289.502 113.369L263.023 116.341L236.544 119.312C233.666 119.636 232.29 122.412 234.068 124.309L244.593 135.544L203.74 163.255C201.242 164.95 197.644 164.955 195.137 163.268L179.086 152.464C176.81 150.931 173.6 150.781 171.128 152.09L113.117 182.81C111.226 183.812 108.858 183.976 106.791 183.249L92.4888 178.222C90.4173 177.495 88.0432 177.661 86.1505 178.668L27.5655 209.835C22.973 212.278 21.6473 217.335 24.6056 221.128C26.3309 223.341 29.1316 224.635 32.0784 224.845C34.1835 224.995 36.3633 224.591 38.2781 223.573L88.0505 197.094C89.9432 196.087 92.3173 195.92 94.3888 196.648L108.667 201.667C110.734 202.393 113.102 202.229 114.993 201.228L169.741 172.235C172.213 170.927 175.423 171.077 177.698 172.609L195.186 184.38C197.692 186.066 201.289 186.061 203.788 184.366L256.707 148.473L266.777 159.222C268.556 161.12 272.154 160.716 273.255 158.495L283.379 138.067L293.503 117.64C294.603 115.419 292.38 113.046 289.502 113.369Z" fill="#E69724"/>
<path d="M30.9931 143.734C43.2758 143.734 53.2328 135.509 53.2328 125.363C53.2328 115.217 43.2758 106.992 30.9931 106.992C18.7105 106.992 8.75342 115.217 8.75342 125.363C8.75342 135.509 18.7105 143.734 30.9931 143.734Z" fill="#F0C66C"/>
<path d="M30.9932 145.708C44.5957 145.708 55.6227 136.599 55.6227 125.363C55.6227 114.127 44.5957 105.018 30.9932 105.018C17.3908 105.018 6.36377 114.127 6.36377 125.363C6.36377 136.599 17.3908 145.708 30.9932 145.708Z" stroke="#F0C66C" stroke-width="0.5" stroke-miterlimit="10"/>
<path d="M27.774 114.21C35.3552 111.916 41.0921 118.012 40.2701 122.863C39.9124 127.645 33.1377 130.601 33.753 132.407C32.3534 132.407 29.5379 132.407 28.1391 132.407C28.1391 132.407 28.5378 131.518 27.0751 130.45C21.5539 126.856 17.9967 117.839 27.774 114.21Z" fill="white"/>
<path d="M33.7529 132.407C33.7218 134.6 34.3978 137.243 30.5379 136.999C27.5066 136.917 28.1924 134.091 28.135 132.407H33.7529Z" fill="#E69724"/>
<path d="M32.0694 132.407C32.0694 132.407 31.9677 125.109 32.7462 123.085C33.5248 121.061 35.081 119.499 36.2312 121.238C38.4446 126.769 26.5679 128.156 25.6417 123.262C24.4169 118.542 30.8446 118.14 29.7715 132.406" stroke="#F0C66C" stroke-miterlimit="10" stroke-linecap="round"/>
<path d="M63.6411 77.013C75.9237 77.013 85.8808 68.7881 85.8808 58.6422C85.8808 48.4964 75.9237 40.2715 63.6411 40.2715C51.3584 40.2715 41.4014 48.4964 41.4014 58.6422C41.4014 68.7881 51.3584 77.013 63.6411 77.013Z" fill="#F0C66C"/>
<path d="M63.6412 78.9872C77.2437 78.9872 88.2706 69.8785 88.2706 58.6424C88.2706 47.4063 77.2437 38.2976 63.6412 38.2976C50.0387 38.2976 39.0117 47.4063 39.0117 58.6424C39.0117 69.8785 50.0387 78.9872 63.6412 78.9872Z" stroke="#F0C66C" stroke-width="0.5" stroke-miterlimit="10"/>
<path d="M68.5376 67.894C74.992 65.6612 78.033 59.529 75.3299 54.1974C72.6268 48.8658 65.2032 46.3538 58.7488 48.5867C52.2944 50.8195 49.2533 56.9517 51.9564 62.2833C54.6595 67.6149 62.0832 70.1269 68.5376 67.894Z" stroke="white" stroke-miterlimit="10"/>
<path d="M60.6804 63.1751C60.0578 63.6515 59.0569 63.5106 58.6607 62.8912L56.1552 58.977C55.8271 58.466 56.0634 57.8324 56.6819 57.5627C57.3038 57.2917 58.0675 57.4868 58.394 57.9978L60.1447 60.7322L69.1468 53.8478C69.6587 53.4527 70.4618 53.4791 70.9368 53.904C71.4135 54.3282 71.3823 54.9903 70.8688 55.3827L60.6804 63.1751Z" fill="white"/>
<path d="M76.3937 68.834C77.1591 66.1649 75.1601 63.4885 71.9288 62.8563C68.6975 62.224 65.4575 63.8753 64.6921 66.5444C63.9266 69.2136 65.9257 71.89 69.157 72.5222C72.3883 73.1545 75.6283 71.5032 76.3937 68.834Z" fill="white"/>
<path d="M75.6565 67.6883C75.6565 70.0242 73.3644 71.9176 70.5365 71.9176C67.7087 71.9176 65.4165 70.0242 65.4165 67.6883C65.4165 65.3524 67.7087 63.459 70.5365 63.459C73.3644 63.459 75.6565 65.3524 75.6565 67.6883Z" fill="#F0C66C"/>
<path d="M72.0986 68.3591C72.0904 68.9839 71.4817 69.257 70.736 69.3146V69.8425H70.3086V69.3248C69.8016 69.316 69.3569 69.2421 68.9746 69.1032V68.4235C69.137 68.5001 70.019 68.7339 70.3086 68.7196V67.9213C68.6538 67.674 68.4922 65.9893 70.3086 65.9283V65.5339H70.736V65.9175C71.2118 65.9344 71.6425 66.0137 72.0264 66.1547L71.7336 66.7571C71.4095 66.6473 71.0764 66.5802 70.736 66.5565V67.3162C71.4833 67.5778 72.0609 67.7119 72.0986 68.3591ZM69.9074 66.8344C69.918 67.0309 70.0838 67.079 70.3094 67.1718V66.5667C70.0411 66.5992 69.9074 66.6887 69.9074 66.8344ZM71.1601 68.3977C71.1462 68.206 70.9542 68.1545 70.736 68.0603V68.7013C71.019 68.662 71.1601 68.5611 71.1601 68.3977Z" fill="white"/>
<path d="M278.114 88.8061C280.968 78.9382 273.598 69.0272 261.652 66.6693C249.706 64.3114 237.708 70.3995 234.853 80.2674C231.999 90.1353 239.369 100.046 251.315 102.404C263.261 104.762 275.259 98.674 278.114 88.8061Z" fill="#F0C66C"/>
<path d="M256.5 104.886C270.103 104.886 281.13 95.7774 281.13 84.5413C281.13 73.3052 270.103 64.1965 256.5 64.1965C242.898 64.1965 231.871 73.3052 231.871 84.5413C231.871 95.7774 242.898 104.886 256.5 104.886Z" stroke="#F0C66C" stroke-width="0.5" stroke-miterlimit="10"/>
<path d="M247.621 86.8092C247.621 86.8092 247.913 90.2524 247.938 91.7169C247.95 92.4094 248.069 92.9319 248.191 93.2904C248.308 93.6347 248.722 93.8488 249.149 93.7885L251.508 93.4578C251.992 93.3893 252.307 92.997 252.19 92.6019C251.758 91.132 250.859 87.8549 251.071 86.6812L247.621 86.8092Z" fill="#E69724"/>
<path d="M245.429 82.5378L245.919 86.368C245.956 86.6553 246.255 86.8695 246.605 86.8586L252.805 86.6655L252.43 81.2659L246.242 81.7226C245.743 81.7585 245.377 82.1265 245.429 82.5378Z" fill="#E69724"/>
<path d="M252.429 81.2654L263.296 75.4782C264.126 75.0363 265.236 75.384 265.5 76.17C266.38 78.8014 267.865 84.3833 266.913 89.9605C266.822 90.4924 266.153 90.8157 265.544 90.6266L252.804 86.6657L252.429 81.2654Z" fill="white"/>
<path d="M245.463 82.7996C244.716 82.8477 244.163 83.3959 244.243 84.0119L244.391 85.1538C244.47 85.7691 245.146 86.2096 245.889 86.1303L245.463 82.7996Z" fill="white"/>
<path d="M266.659 80.5916C266.659 80.5916 268.776 81.1649 268.764 82.6388C268.752 84.1127 267.22 85.0885 267.22 85.0885C267.22 85.0885 266.814 81.4569 266.659 80.5916Z" fill="#E69724"/>
<path d="M266.913 89.9605C267.865 84.384 266.38 78.8014 265.5 76.17C265.236 75.384 264.126 75.0363 263.296 75.4782L262.981 75.6455C263.381 76.3767 264.144 78.0343 264.567 80.6616C265.114 84.0519 265.558 87.8164 264.978 90.4498L265.543 90.6253C266.153 90.8157 266.823 90.4924 266.913 89.9605Z" fill="#E69724"/>
<path d="M103.888 170.574L100.294 169.741C100.51 168.611 100.592 166.787 99.494 165.068C98.4086 163.371 96.4676 162.188 93.7251 161.551C89.0235 160.461 86.048 162.029 84.3802 163.537C83.5885 164.253 83.0241 165.018 82.6401 165.648L78.9156 164.784C77.8048 164.527 76.6513 165.062 76.3396 165.98L72.0482 178.608C71.7364 179.526 72.3845 180.478 73.4953 180.736L98.4677 186.526C99.5785 186.783 100.732 186.249 101.044 185.33L105.335 172.702C105.647 171.785 104.999 170.832 103.888 170.574ZM92.9646 163.788C94.927 164.243 96.283 165.033 96.996 166.137C97.6629 167.169 97.6744 168.313 97.5612 169.107L85.3884 166.285C86.4114 164.793 88.6437 162.787 92.9646 163.788Z" fill="#A0C8EC"/>
<path d="M99.28 146.915L95.466 158.944C95.466 158.944 96.9321 159.99 97.5465 161.26C98.161 162.53 97.9625 163.569 97.6056 163.249C97.3874 163.053 97.0584 162.853 96.5932 162.594C95.9648 162.244 95.6736 161.838 95.2109 161.858C94.4119 161.894 93.5554 162.182 94.1977 163.552C94.8204 164.881 97.033 165.267 96.4726 165.61C95.046 166.48 94.0378 165.284 94.0378 165.284C94.0378 165.284 93.6185 165.82 93.0508 165.81C92.4831 165.801 92.2649 164.976 92.2649 164.976C92.2649 164.976 91.8391 165.438 91.1935 165.363C90.5479 165.288 90.4076 164.531 90.4076 164.531C90.4076 164.531 89.3919 165.28 88.7315 164.372C88.0711 163.465 86.77 161.176 90.7489 158.25C90.7489 158.25 94.4758 142.927 96.1642 142.109C97.8533 141.29 99.28 146.915 99.28 146.915Z" fill="#E1B39D"/>
<path d="M90.9498 156.78L95.6916 158.346C95.9057 158.416 96.1469 158.317 96.2084 158.134L96.3413 157.735C96.393 157.579 96.2962 157.416 96.1157 157.354L91.3928 155.749C91.1795 155.677 90.9367 155.773 90.8735 155.957L90.7217 156.395C90.6668 156.553 90.7652 156.719 90.9498 156.78Z" fill="white"/>
<path d="M90.739 156.234L96.3242 157.895C96.5785 157.971 96.8591 157.862 96.9509 157.652L99.7271 145.995L106.581 139.255C106.673 139.045 105.861 136.678 105.607 136.602L103.783 131.083C103.529 131.007 93.2609 143.56 93.2609 143.56L90.4445 155.716C90.3526 155.927 90.4847 156.159 90.739 156.234Z" fill="#319F43"/>
<path d="M149.088 151.841C149.088 151.841 152.62 153.421 152.767 153.398C152.914 153.374 155.501 152.731 156.039 153.28C156.577 153.829 158.799 155.857 160.205 157.024C161.612 158.192 162.484 159.681 161.621 160.232C160.757 160.783 160.52 160.277 160.52 160.277C160.52 160.277 161.075 161.278 160.176 161.547C159.277 161.816 158.857 161.423 158.857 161.423C158.857 161.423 159.095 162.041 158.563 162.288C158.031 162.535 157.346 162.314 157.14 162.067C157.14 162.067 156.36 163.016 155.363 162.465C154.367 161.914 149.655 158.833 149.554 157.484L147.562 156.409L149.088 151.841Z" fill="#E1B39D"/>
<path d="M150.156 152.231L147.856 156.611C147.757 156.799 147.485 156.878 147.266 156.781L144.043 155.359C143.848 155.273 143.765 155.077 143.854 154.909L146.264 150.326C146.368 150.129 146.661 150.054 146.882 150.169L149.993 151.794C150.17 151.886 150.24 152.072 150.156 152.231Z" fill="white"/>
<path d="M125.425 217.548L125.261 221.942L118.401 221.914L118.428 217.52L125.425 217.548Z" fill="#F3D6C1"/>
<path d="M118.401 221.914L125.111 221.942C125.213 221.943 125.31 221.951 125.409 221.971C126.366 222.161 131.82 223.296 136.622 225.49C137.816 226.036 137.327 227.543 135.962 227.537L119.694 227.471C118.963 227.468 118.373 226.976 118.376 226.372L118.401 221.914Z" fill="#2F526E"/>
<path d="M121.68 109.668C121.68 109.668 122.011 111.306 124.461 114.678C126.962 118.121 126.743 123.465 123.478 124.711C120.936 125.68 119.021 125.322 119.021 125.322L117.83 133.025L109.542 131.545L110.043 124.006L107.392 113.274L121.68 109.668Z" fill="#E1B39D"/>
<path d="M112.019 217.214L111.872 221.942L105.012 221.914L105.038 217.519L112.019 217.214Z" fill="#F3D6C1"/>
<path d="M105.012 221.914L111.721 221.942C111.823 221.943 111.919 221.951 112.019 221.971C112.976 222.161 118.429 223.296 123.232 225.49C124.425 226.036 123.936 227.543 122.572 227.537L106.303 227.471C105.572 227.468 104.982 226.976 104.986 226.372L105.012 221.914Z" fill="#315780"/>
<path d="M125.889 164.197L126.739 217.553C126.749 218.143 126.178 218.63 125.462 218.642L118.213 218.757C117.518 218.768 116.934 218.326 116.889 217.752L115.395 198.682L113.034 218.004C112.967 218.546 112.421 218.961 111.762 218.971L105.421 219.064C104.712 219.075 104.123 218.614 104.097 218.028L101.729 164.197C101.726 163.908 125.889 164.197 125.889 164.197Z" fill="#F0C66C"/>
<path d="M125.425 217.548L118.162 217.626" stroke="#E69724" stroke-width="0.5" stroke-miterlimit="10" stroke-linecap="round"/>
<path d="M111.943 217.718L104.916 217.808" stroke="#E69724" stroke-width="0.5" stroke-miterlimit="10" stroke-linecap="round"/>
<path d="M119.15 216.228L117.413 181.463" stroke="#E69724" stroke-width="0.5" stroke-miterlimit="10" stroke-linecap="round"/>
<path d="M121.456 164.882C121.456 164.882 121.552 171.909 118.793 172.923C116.033 173.936 119.51 167.647 118.333 164.839L121.456 164.882Z" stroke="#E69724" stroke-width="0.5" stroke-miterlimit="10" stroke-linecap="round"/>
<path d="M118.793 172.923L118.254 174.282L115.395 198.683" stroke="#E69724" stroke-width="0.5" stroke-miterlimit="10" stroke-linecap="round"/>
<path d="M104.726 163.757L106.389 216.228" stroke="#E69724" stroke-width="0.5" stroke-miterlimit="10" stroke-linecap="round"/>
<path d="M102.073 135.258C102.459 132.273 103.808 128.88 108.326 128.269C111.539 127.834 116.183 127.939 119.296 128.695C122.255 129.414 124.823 130.944 126.558 133.051C129.396 136.499 133.736 141.776 133.756 141.79L149.467 150.794C149.77 150.987 149.872 151.328 149.712 151.615L147.127 156.27C146.91 156.661 146.317 156.791 145.897 156.537C142.387 154.412 128.354 147.115 128.335 147.096L125.775 145.081L126.311 164.949H101.274C101.274 164.949 101.215 141.902 102.073 135.258Z" fill="#319F43"/>
<path d="M109.948 123.289L112.184 120.946C112.445 120.673 112.352 120.276 111.989 120.1C111.103 119.672 109.717 118.796 109.77 117.525C109.848 115.664 112.29 114.929 114.13 116.464C114.13 116.464 114.538 117.483 115.062 113.541C115.585 109.6 119.647 112.468 121.533 110.823C123.419 109.179 124.663 108.241 124.261 106.708C123.859 105.176 122.65 102.987 120.257 104.316C117.863 105.646 117.691 103.055 115.074 104.168C111.815 105.555 108.225 102.706 107.857 106.034C107.49 109.362 102.791 107.101 104.082 109.79C105.372 112.479 100.246 112.48 101.462 114.379C102.678 116.278 101.082 118.657 103.261 119.579C105.439 120.502 107.134 119.583 107.359 122.078C107.49 123.534 109.948 123.289 109.948 123.289Z" fill="#2F5482"/>
<path d="M120.006 131.947C120.006 131.947 114.871 133.909 120.417 139.734C125.695 145.278 125.775 145.081 125.775 145.081" stroke="#264154" stroke-width="0.5" stroke-miterlimit="10" stroke-linecap="round"/>
<path d="M109.521 152.604C109.521 152.604 110.01 160.283 117.698 161.188" stroke="#264154" stroke-width="0.5" stroke-miterlimit="10" stroke-linecap="round"/>
<path d="M105.413 148.227C105.413 148.227 104.562 159.377 109.109 161.911" stroke="#264154" stroke-width="0.5" stroke-miterlimit="10" stroke-linecap="round"/>
<path d="M184.851 218.622L185.031 223.43L191.222 222.583L191.198 218.597L184.851 218.622Z" fill="#E1B39D"/>
<path d="M191.222 222.583C184.822 222.502 182.726 222.495 174.696 225.826C173.613 226.321 174.057 227.688 175.295 227.683L190.052 227.622C192.192 227.724 191.222 222.583 191.222 222.583Z" fill="#2F526E"/>
<path d="M213.653 218.597L213.803 223.421L220.015 223.812L219.985 218.874L213.653 218.597Z" fill="#E1B39D"/>
<path d="M216.483 222.561C215.674 222.565 213.103 222.704 211.77 223.797C210.05 225.208 210.28 227.65 210.979 227.652L221.925 227.683C222.454 227.716 222.279 225.576 221.055 224.215C219.954 222.988 219.036 222.552 216.483 222.561Z" fill="#315780"/>
<path d="M217.138 175.314L220.681 174.578C220.506 173.468 220.485 171.683 221.615 170.025C222.732 168.389 224.668 167.274 227.372 166.713C232.007 165.75 234.867 167.35 236.449 168.862C237.201 169.579 237.727 170.34 238.082 170.965L241.754 170.203C242.849 169.975 243.96 170.525 244.235 171.429L248.024 183.877C248.3 184.781 247.635 185.699 246.54 185.927L221.924 191.038C220.829 191.265 219.718 190.716 219.443 189.812L215.654 177.364C215.378 176.459 216.043 175.541 217.138 175.314ZM228.043 168.918C226.109 169.32 224.757 170.062 224.024 171.126C223.339 172.121 223.29 173.24 223.375 174.019L235.374 171.527C234.421 170.045 232.303 168.034 228.043 168.918Z" fill="#EBB259"/>
<path d="M214.625 158.957C215.285 162.669 218.14 179.593 217.822 192.84C217.821 192.88 217.824 192.92 217.829 192.96L221.558 219.363C221.636 219.916 221.113 220.403 220.438 220.403H213.167C212.642 220.403 212.187 220.104 212.068 219.682C210.807 215.197 204.08 191.194 203.577 188.011C203.022 184.496 202.467 179.76 202.467 179.76L197.853 195.313C197.846 195.334 197.841 195.355 197.836 195.377L192.709 219.97C192.614 220.423 192.135 220.751 191.579 220.744L183.954 220.644C183.306 220.635 182.8 220.179 182.846 219.646L185.261 191.714C185.264 191.69 185.266 191.666 185.271 191.642L191.4 157.841C191.487 157.361 192.003 157.017 192.589 157.048L213.583 158.167C214.114 158.196 214.548 158.522 214.625 158.957Z" fill="#315782"/>
<path d="M202.479 179.759L199.607 160.906" stroke="#264154" stroke-width="0.5" stroke-miterlimit="10" stroke-linecap="round"/>
<path d="M200.622 178.269L194.431 195.039L190.232 218.597" stroke="#264154" stroke-width="0.5" stroke-miterlimit="10" stroke-linecap="round"/>
<path d="M213.25 166.368L215.303 192.72L219.516 218.596" stroke="#264154" stroke-width="0.5" stroke-miterlimit="10" stroke-linecap="round"/>
<path d="M196.481 162.287C196.481 162.287 197.579 168.665 200.622 168.576" stroke="#264154" stroke-width="0.5" stroke-miterlimit="10" stroke-linecap="round"/>
<path d="M207.554 160.906C207.554 160.906 208.714 165.035 212.3 168.577" stroke="#264154" stroke-width="0.5" stroke-miterlimit="10" stroke-linecap="round"/>
<path d="M221.696 152.694L226.289 164.228C226.289 164.228 224.285 165.114 223.642 166.343C223 167.571 223.161 168.592 223.521 168.287C223.741 168.1 224.069 167.911 224.532 167.669C225.158 167.341 225.457 166.949 225.908 166.98C226.689 167.032 227.517 167.333 226.844 168.659C226.192 169.945 224.015 170.274 224.552 170.621C225.919 171.504 226.945 170.356 226.945 170.356C226.945 170.356 227.338 170.889 227.893 170.892C228.449 170.896 228.689 170.093 228.689 170.093C228.689 170.093 229.09 170.555 229.725 170.496C230.36 170.437 230.521 169.699 230.521 169.699C230.521 169.699 231.49 170.454 232.166 169.581C232.842 168.708 234.188 166.498 230.391 163.547C230.391 163.547 227.241 148.477 225.616 147.638C223.99 146.802 221.696 152.694 221.696 152.694Z" fill="#F3D6C1"/>
<path d="M161.898 159.351C161.898 159.351 161.876 158.852 160.563 157.693C159.25 156.534 157.842 154.896 156.795 155.02C156.795 155.02 156.178 157.254 155.196 157.448C154.214 157.641 154.244 156.38 154.118 155.383C153.993 154.386 155.523 153.109 156.567 152.956C157.731 152.785 158.99 153.817 160.526 153.94L165.492 152.602L166.935 157.469L164.029 158.221C164.029 158.221 163.187 158.686 161.898 159.351Z" fill="#F3D6C1"/>
<path d="M164.055 153.128L165.759 157.549C165.836 157.749 166.107 157.848 166.338 157.763L166.842 157.576C167.038 157.504 167.138 157.322 167.075 157.152L165.424 152.717C165.349 152.516 165.08 152.414 164.847 152.498L164.29 152.699C164.091 152.77 163.989 152.955 164.055 153.128Z" fill="#F9ECDC"/>
<path d="M154.993 155.543L154.118 155.383C154.187 155.927 154.209 156.549 154.375 156.971C155.114 157.271 155.235 156.262 155.252 155.804C155.256 155.682 155.147 155.572 154.993 155.543Z" fill="white"/>
<path d="M152.639 159.271C152.639 159.271 154.008 158.569 154.593 158.822C155.179 159.075 155.213 159.4 155.061 159.584C155.061 159.584 155.857 159.349 156.294 159.873C156.731 160.397 155.442 161.143 155.442 161.143C155.442 161.143 156.391 161.251 155.496 162.097C154.6 162.942 153.475 162.679 153.577 162.058C153.577 162.058 152.639 162.168 152.299 161.752C151.958 161.337 152.242 161.004 152.242 161.004C152.242 161.004 151.32 161.116 151.129 160.652C150.938 160.189 151.225 159.956 151.225 159.956C151.225 159.956 149.947 159.873 150.155 159.174C150.362 158.476 152.205 158.029 152.501 158.305C152.797 158.58 152.941 158.693 152.639 159.271Z" fill="#F3D6C1"/>
<path d="M151.454 159.243L151.261 158.992C151.184 158.893 151.225 158.766 151.351 158.707L151.782 158.509C151.993 158.412 152.267 158.467 152.394 158.633C152.521 158.798 152.454 159.012 152.243 159.109L151.798 159.314C151.68 159.368 151.526 159.337 151.454 159.243Z" fill="white"/>
<path d="M153.681 159.743L153.487 159.492C153.411 159.393 153.451 159.266 153.578 159.207L154.008 159.009C154.219 158.912 154.493 158.967 154.62 159.133C154.747 159.298 154.68 159.512 154.469 159.609L154.025 159.813C153.907 159.867 153.752 159.836 153.681 159.743Z" fill="white"/>
<path d="M155.007 160.58L154.813 160.329C154.737 160.23 154.777 160.103 154.903 160.044L155.334 159.846C155.545 159.749 155.819 159.804 155.946 159.97C156.073 160.135 156.006 160.349 155.795 160.445L155.35 160.65C155.232 160.705 155.078 160.674 155.007 160.58Z" fill="white"/>
<path d="M155.141 161.889L154.938 161.691C154.907 161.661 154.913 161.618 154.951 161.595L155.288 161.386C155.392 161.322 155.545 161.336 155.629 161.418C155.713 161.5 155.697 161.619 155.593 161.684L155.244 161.899C155.213 161.918 155.167 161.914 155.141 161.889Z" fill="white"/>
<path d="M225.429 163.702L230.889 162.616C231.136 162.567 231.277 162.351 231.19 162.154L231.001 161.725C230.927 161.559 230.715 161.463 230.505 161.503L225.031 162.544C224.783 162.591 224.641 162.806 224.725 163.004L224.927 163.477C225.001 163.647 225.217 163.744 225.429 163.702Z" fill="#F9ECDC"/>
<path d="M214.349 159.023C212.589 159.62 201.604 163.015 191.507 158.352C191.382 158.294 191.302 158.19 191.296 158.072C191.214 156.387 190.875 142.718 190.706 139.223L183.349 147.929C183.328 147.95 167.393 157.757 167.393 157.757C167.167 157.896 166.844 157.811 166.756 157.591L164.59 152.144C164.536 152.011 164.588 151.865 164.718 151.776L177.506 143.105C177.538 143.083 187.263 128.677 189.82 127.796C193.18 126.639 196.74 125.107 200.133 125.438C207.287 126.136 200.654 123.341 216.452 126.911C222.7 128.323 230.13 155.013 231.314 161.432C231.345 161.602 231.214 161.763 231.013 161.808L224.861 163.175C224.649 163.223 224.429 163.123 224.363 162.95L215.362 139.675L214.6 158.72C214.596 158.853 214.498 158.972 214.349 159.023Z" fill="#00A0E3"/>
<path d="M195.674 107.56C195.674 107.56 195.397 109.192 193.071 112.588C190.697 116.056 191.081 121.353 194.359 122.519C196.911 123.426 198.799 123.031 198.799 123.031L199.808 128.703L208.297 126.341L207.664 121.534L209.959 110.831L195.674 107.56Z" fill="#F3D6C1"/>
<path d="M193.554 104.185C193.517 103.652 194.153 103.246 194.761 103.427C196.021 103.802 198.489 104.201 203.001 103.886C211.62 103.285 215.67 109.581 215.346 114.013C215.067 117.812 210.018 119.758 208.371 121.29C208.016 121.62 207.384 121.601 207.028 121.271C206.187 120.492 205.016 119.33 205.001 118.889C204.978 118.2 207.412 118.191 207.662 116.138C207.91 114.084 204.603 113.687 203.551 115.232C202.499 116.777 203.27 111.305 201.511 110.705C199.892 110.153 193.873 108.757 193.554 104.185Z" fill="#2F5482"/>
<path d="M208.28 125.85C208.28 125.85 208.936 130.298 203.503 130.698C198.069 131.099 199.519 126.224 199.519 126.224L208.28 125.85Z" fill="#F3D6C1"/>
<path d="M205.977 131.445L203.347 134.506C203.097 134.798 202.576 134.806 202.312 134.522L199.031 130.978C199.031 130.978 203.33 130.161 205.977 131.445Z" fill="#F9ECDC"/>
<path d="M202.765 133.546L206.401 150.603C206.444 150.807 206.416 151.021 206.32 151.206L203.536 156.624C203.209 157.26 202.314 157.265 201.981 156.631L199.182 151.294C199.085 151.107 199.055 150.891 199.099 150.684L202.765 133.546Z" fill="#F9ECDC"/>
<path d="M208.139 125.143C208.139 125.143 205.428 130.32 201.825 130.63L206.982 133.169C206.982 133.169 212.712 126.993 208.139 125.143Z" fill="#E69724"/>
<path d="M199.23 125.363C199.23 125.363 199.61 129.816 202.64 130.797L198.451 133.169C198.451 133.169 194.766 126.26 199.23 125.363Z" fill="#E69724"/>
<path d="M301 227.726H1" stroke="#315782" stroke-miterlimit="10" stroke-linecap="round"/>
</svg>
