<svg width="85" height="65" viewBox="0 0 85 65" fill="none" xmlns="http://www.w3.org/2000/svg">
<path d="M49.5833 9.479C62.9396 9.479 69.6181 9.479 73.7672 12.8503C77.9166 16.2216 77.9166 21.6477 77.9166 32.4998C77.9166 43.3519 77.9166 48.778 73.7672 52.1493C69.6181 55.5207 62.9396 55.5207 49.5833 55.5207H35.4166C22.0601 55.5207 15.3819 55.5207 11.2326 52.1493C7.08325 48.778 7.08325 43.3519 7.08325 32.4998C7.08325 21.6477 7.08325 16.2216 11.2326 12.8503C15.3819 9.479 22.0601 9.479 35.4166 9.479H49.5833Z" stroke="#00A0E3" stroke-linejoin="round"/>
<path d="M17.7083 41.979C23.4056 36.1902 36.67 35.8744 42.4999 41.979M36.2985 27.7605C36.2985 30.3781 33.5236 32.5001 30.1006 32.5001C26.6776 32.5001 23.9027 30.3781 23.9027 27.7605C23.9027 25.143 26.6776 23.021 30.1006 23.021C33.5236 23.021 36.2985 25.143 36.2985 27.7605Z" stroke="#00A0E3" stroke-linecap="round"/>
<path d="M53.125 25.729H67.2917" stroke="#00A0E3" stroke-linecap="round"/>
<path d="M53.125 36.5625H60.2083" stroke="#00A0E3" stroke-linecap="round"/>
</svg>
