<svg width="85" height="65" viewBox="0 0 85 65" fill="none" xmlns="http://www.w3.org/2000/svg">
<path d="M16.0385 17.1641H72.1793C70.5643 17.1641 69.6824 18.372 69.4168 19.8724L64.9436 45.1168C64.678 46.6172 62.8842 47.8251 60.9238 47.8251H10.6074C8.6453 47.8251 7.27821 46.6172 7.54561 45.1168L12.017 19.8724C12.2826 18.372 14.0764 17.1641 16.0385 17.1641Z" stroke="#00A0E3" stroke-linecap="round" stroke-linejoin="round"/>
<path d="M45.8132 36.5542C49.1873 36.5542 51.9226 34.4625 51.9226 31.8823C51.9226 29.3021 49.1873 27.2104 45.8132 27.2104C42.4391 27.2104 39.7039 29.3021 39.7039 31.8823C39.7039 34.4625 42.4391 36.5542 45.8132 36.5542Z" stroke="#00A0E3" stroke-linecap="round" stroke-linejoin="round"/>
<path d="M38.234 42.4776C40.0071 42.4776 41.4445 41.3784 41.4445 40.0225C41.4445 38.6666 40.0071 37.5674 38.234 37.5674C36.4608 37.5674 35.0234 38.6666 35.0234 40.0225C35.0234 41.3784 36.4608 42.4776 38.234 42.4776Z" stroke="#00A0E3" stroke-linecap="round" stroke-linejoin="round"/>
<path d="M53.6138 42.4776C55.387 42.4776 56.8244 41.3784 56.8244 40.0225C56.8244 38.6666 55.387 37.5674 53.6138 37.5674C51.8407 37.5674 50.4033 38.6666 50.4033 40.0225C50.4033 41.3784 51.8407 42.4776 53.6138 42.4776Z" stroke="#00A0E3" stroke-linecap="round" stroke-linejoin="round"/>
<path d="M45.8133 36.7723V42.6412C45.8133 45.4335 43.003 47.8372 41.7351 47.8372M72.1775 17.1626C74.9435 17.1626 75.3579 21.3199 75.3579 21.3199L77.4794 40.8957C77.6281 42.7022 75.1295 44.5763 72.3333 44.5763H65.4271M18.036 19.3469H64.1893C65.1703 19.3469 65.7033 19.9386 65.5847 20.701L65.3633 22.1297C65.2447 22.8921 64.1981 23.4838 63.2171 23.4838H17.0639C16.0828 23.4838 15.5197 22.884 15.6684 22.1297L15.8898 20.701C16.0315 19.9116 17.055 19.3469 18.036 19.3469Z" stroke="#00A0E3" stroke-linecap="round" stroke-linejoin="round"/>
</svg>
