<svg width="85" height="65" viewBox="0 0 85 65" fill="none" xmlns="http://www.w3.org/2000/svg">
<path d="M8.85425 22.1727C9.22279 16.4859 10.3254 12.9404 13.6236 10.4181C16.9219 7.89596 21.5584 7.05283 28.9949 6.771M76.1459 22.1727C75.7772 16.4859 74.6747 12.9404 71.3767 10.4181C68.0784 7.89596 63.4416 7.05283 56.0052 6.771M56.0052 58.2293C63.4416 57.9474 68.0784 57.1043 71.3767 54.5823C74.6747 52.06 75.7772 48.5143 76.1459 42.8276M28.9949 58.2293C21.5584 57.9474 16.9219 57.1043 13.6236 54.5823C10.3254 52.06 9.22279 48.5143 8.85425 42.8276" stroke="#00A0E3" stroke-linecap="round" stroke-linejoin="round"/>
<path d="M61.9791 46.0417L61.263 43.7426C60.6711 41.8429 58.7877 40.3339 56.334 39.7933L47.8124 37.915L47.8114 33.9403C50.9872 32.3012 53.1239 29.2378 53.1239 25.7292C53.1239 20.494 48.3667 16.25 42.4989 16.25C36.6307 16.25 31.8737 20.494 31.8737 25.7292C31.8737 29.2378 34.0104 32.3012 37.1864 33.9403L37.1874 37.915L28.7188 39.8109C26.341 40.3433 24.4996 41.7869 23.8632 43.618L23.0208 46.0417" stroke="#00A0E3" stroke-linecap="round" stroke-linejoin="round"/>
</svg>
